<?xml version="1.0" standalone="no"?><!DOCTYPE svg PUBLIC "-//W3C//DTD SVG 1.1//EN" "http://www.w3.org/Graphics/SVG/1.1/DTD/svg11.dtd"><svg height="1024" node-id="1" sillyvg="true" template-height="1024" template-width="1024" version="1.1" viewBox="0 0 1024 1024" width="1024" xmlns="http://www.w3.org/2000/svg" xmlns:xlink="http://www.w3.org/1999/xlink"><defs node-id="169"><linearGradient gradientUnits="objectBoundingBox" id="paint0_linear_469_1856" node-id="102" spreadMethod="pad" x1="418.227" x2="520.185" y1="205.485" y2="262.926"><stop offset="0" stop-color="#ffd177"></stop><stop offset="0.267053" stop-color="#ffca62"></stop><stop offset="0.558713" stop-color="#ffb629"></stop><stop offset="0.926149" stop-color="#ffcf72"></stop></linearGradient><linearGradient gradientUnits="objectBoundingBox" id="paint1_linear_469_1856" node-id="107" spreadMethod="pad" x1="476.158" x2="476.158" y1="244.279" y2="860.598"><stop offset="0" stop-color="#ffcc68"></stop><stop offset="1" stop-color="#f9a01a"></stop></linearGradient><linearGradient gradientUnits="objectBoundingBox" id="paint2_linear_469_1856" node-id="110" spreadMethod="pad" x1="476.158" x2="476.158" y1="244.279" y2="860.598"><stop offset="0" stop-color="#ffcc68"></stop><stop offset="1" stop-color="#f9921a"></stop></linearGradient><linearGradient gradientUnits="objectBoundingBox" id="paint3_linear_469_1856" node-id="113" spreadMethod="pad" x1="475.665" x2="475.665" y1="275.879" y2="801.464"><stop offset="0" stop-color="#ffb629" stop-opacity="0"></stop><stop offset="0.53125" stop-color="#ffb629"></stop></linearGradient><linearGradient gradientUnits="objectBoundingBox" id="paint4_linear_469_1856" node-id="116" spreadMethod="pad" x1="475.687" x2="475.687" y1="387.879" y2="746.885"><stop offset="0" stop-color="#4e93f3"></stop><stop offset="1" stop-color="#41bbff"></stop></linearGradient><linearGradient gradientUnits="objectBoundingBox" id="paint5_linear_469_1856" node-id="119" spreadMethod="pad" x1="465.676" x2="465.676" y1="296.78" y2="390.122"><stop offset="0" stop-color="#ffffff" stop-opacity="0"></stop><stop offset="1" stop-color="#ffffff"></stop></linearGradient><linearGradient gradientUnits="objectBoundingBox" id="paint6_linear_469_1856" node-id="122" spreadMethod="pad" x1="21.0164" x2="52.4483" y1="326.714" y2="327.078"><stop offset="0" stop-color="#f4f4f4"></stop><stop offset="0.651042" stop-color="#c8c8c8"></stop><stop offset="1" stop-color="#dddddd"></stop></linearGradient><linearGradient gradientUnits="objectBoundingBox" id="paint7_linear_469_1856" node-id="126" spreadMethod="pad" x1="18.3225" x2="61.5384" y1="199.546" y2="227.405"><stop offset="0" stop-color="#ffdc97"></stop><stop offset="0.46875" stop-color="#ffb932"></stop><stop offset="0.729167" stop-color="#ffa800"></stop><stop offset="0.994792" stop-color="#ffe8bb"></stop></linearGradient><linearGradient gradientUnits="objectBoundingBox" id="paint8_linear_469_1856" node-id="131" spreadMethod="pad" x1="52.0867" x2="52.0867" y1="459.639" y2="557.288"><stop offset="0" stop-color="#ffdf6f"></stop><stop offset="0.833333" stop-color="#ffbc3a"></stop><stop offset="1" stop-color="#ffd178"></stop></linearGradient><linearGradient gradientUnits="objectBoundingBox" id="paint9_linear_469_1856" node-id="135" spreadMethod="pad" x1="95.1668" x2="95.1668" y1="430.918" y2="586.009"><stop offset="0" stop-color="#ffdf6f"></stop><stop offset="0.833333" stop-color="#ffbc3a"></stop><stop offset="1" stop-color="#ffd178"></stop></linearGradient><linearGradient gradientUnits="objectBoundingBox" id="paint10_linear_469_1856" node-id="139" spreadMethod="pad" x1="95.1668" x2="95.1668" y1="451.039" y2="476.888"><stop offset="0" stop-color="#ffffff"></stop><stop offset="1" stop-color="#ffffff" stop-opacity="0"></stop></linearGradient><linearGradient gradientUnits="objectBoundingBox" id="paint11_linear_469_1856" node-id="142" spreadMethod="pad" x1="47.7787" x2="47.7787" y1="473.998" y2="499.846"><stop offset="0" stop-color="#ffffff"></stop><stop offset="1" stop-color="#ffffff" stop-opacity="0"></stop></linearGradient><linearGradient gradientUnits="objectBoundingBox" id="paint12_linear_469_1856" node-id="145" spreadMethod="pad" x1="870.6669" x2="893.8219" y1="323.55396" y2="323.40997"><stop offset="0" stop-color="#f4f4f4"></stop><stop offset="0.651042" stop-color="#c8c8c8"></stop><stop offset="1" stop-color="#dddddd"></stop></linearGradient><linearGradient gradientUnits="objectBoundingBox" id="paint13_linear_469_1856" node-id="149" spreadMethod="pad" x1="863.535" x2="906.751" y1="198.674" y2="226.532"><stop offset="0" stop-color="#ffdc97"></stop><stop offset="0.46875" stop-color="#ffb932"></stop><stop offset="0.729167" stop-color="#ffa800"></stop><stop offset="0.994792" stop-color="#ffe8bb"></stop></linearGradient><linearGradient gradientUnits="objectBoundingBox" id="paint14_linear_469_1856" node-id="154" spreadMethod="pad" x1="-24.8484" x2="-24.8484" y1="0" y2="97.6497"><stop offset="0" stop-color="#ffdf6f"></stop><stop offset="0.833333" stop-color="#ffbc3a"></stop><stop offset="1" stop-color="#ffd178"></stop></linearGradient><linearGradient gradientUnits="objectBoundingBox" id="paint15_linear_469_1856" node-id="158" spreadMethod="pad" x1="-24.8484" x2="-24.8484" y1="0" y2="155.091"><stop offset="0" stop-color="#ffdf6f"></stop><stop offset="0.833333" stop-color="#ffbc3a"></stop><stop offset="1" stop-color="#ffd178"></stop></linearGradient><linearGradient gradientUnits="objectBoundingBox" id="paint16_linear_469_1856" node-id="162" spreadMethod="pad" x1="902.182" x2="902.182" y1="473.961" y2="499.809"><stop offset="0" stop-color="#ffffff"></stop><stop offset="1" stop-color="#ffffff" stop-opacity="0"></stop></linearGradient><linearGradient gradientUnits="objectBoundingBox" id="paint17_linear_469_1856" node-id="165" spreadMethod="pad" x1="856.247" x2="856.247" y1="451" y2="476.848"><stop offset="0" stop-color="#ffffff"></stop><stop offset="1" stop-color="#ffffff" stop-opacity="0"></stop></linearGradient><filter filterUnits="objectBoundingBox" height="384.85397" id="filter0_ddd_469_1856" node-id="47" width="594.514" x="184.174" y="385.007"><feFlood color-interpolation-filters="sRGB" flood-color="#000000" flood-opacity="0" result="BackgroundImageFix"></feFlood><feColorMatrix color-interpolation-filters="sRGB" in="SourceAlpha" result="hardAlpha" type="matrix" values="0 0 0 0 0 0 0 0 0 0 0 0 0 0 0 0 0 0 127 0"></feColorMatrix><feOffset color-interpolation-filters="sRGB" dx="2.87205" dy="2.87205" in="hardAlpha" result="result3"></feOffset><feComposite color-interpolation-filters="sRGB" in="result3" in2="hardAlpha" operator="out" result="result4"></feComposite><feColorMatrix color-interpolation-filters="sRGB" in="result4" result="result5" type="matrix" values="0 0 0 0 0.236163 0 0 0 0 0.539093 0 0 0 0 0.929167 0 0 0 1 0"></feColorMatrix><feBlend color-interpolation-filters="sRGB" in="result5" in2="BackgroundImageFix" mode="normal" result="effect1_dropShadow_469_1856"></feBlend><feColorMatrix color-interpolation-filters="sRGB" in="SourceAlpha" result="hardAlpha" type="matrix" values="0 0 0 0 0 0 0 0 0 0 0 0 0 0 0 0 0 0 127 0"></feColorMatrix><feOffset color-interpolation-filters="sRGB" dx="-2.87205" dy="-2.87205" in="hardAlpha" result="result8"></feOffset><feComposite color-interpolation-filters="sRGB" in="result8" in2="hardAlpha" operator="out" result="result9"></feComposite><feColorMatrix color-interpolation-filters="sRGB" in="result9" result="result10" type="matrix" values="0 0 0 0 0.745833 0 0 0 0 0.862451 0 0 0 0 1 0 0 0 1 0"></feColorMatrix><feBlend color-interpolation-filters="sRGB" in="result10" in2="effect1_dropShadow_469_1856" mode="normal" result="effect2_dropShadow_469_1856"></feBlend><feColorMatrix color-interpolation-filters="sRGB" in="SourceAlpha" result="hardAlpha" type="matrix" values="0 0 0 0 0 0 0 0 0 0 0 0 0 0 0 0 0 0 127 0"></feColorMatrix><feOffset color-interpolation-filters="sRGB" dx="5.7441" dy="11.4882" in="hardAlpha" result="result13"></feOffset><feGaussianBlur color-interpolation-filters="sRGB" in="result13" result="result14" stdDeviation="5.7441 5.7441"></feGaussianBlur><feComposite color-interpolation-filters="sRGB" in="result14" in2="hardAlpha" operator="out" result="result15"></feComposite><feColorMatrix color-interpolation-filters="sRGB" in="result15" result="result16" type="matrix" values="0 0 0 0 0 0 0 0 0 0.12064 0 0 0 0 0.25 0 0 0 0.12 0"></feColorMatrix><feBlend color-interpolation-filters="sRGB" in="result16" in2="effect2_dropShadow_469_1856" mode="normal" result="effect3_dropShadow_469_1856"></feBlend><feBlend color-interpolation-filters="sRGB" in="SourceGraphic" in2="effect3_dropShadow_469_1856" mode="normal" result="shape"></feBlend></filter><filter filterUnits="objectBoundingBox" height="100.522" id="filter1_i_469_1856" node-id="66" width="54.5693" x="26.2383" y="459.639"><feFlood color-interpolation-filters="sRGB" flood-color="#000000" flood-opacity="0" result="BackgroundImageFix"></feFlood><feBlend color-interpolation-filters="sRGB" in="SourceGraphic" in2="BackgroundImageFix" mode="normal" result="shape"></feBlend><feColorMatrix color-interpolation-filters="sRGB" in="SourceAlpha" result="hardAlpha" type="matrix" values="0 0 0 0 0 0 0 0 0 0 0 0 0 0 0 0 0 0 127 0"></feColorMatrix><feOffset color-interpolation-filters="sRGB" dx="2.87205" dy="2.87205" in="hardAlpha" result="result4"></feOffset><feGaussianBlur color-interpolation-filters="sRGB" in="result4" result="result5" stdDeviation="2.87205 2.87205"></feGaussianBlur><feComposite color-interpolation-filters="sRGB" in="result5" in2="hardAlpha" k1="0" k2="-1" k3="1" k4="0" operator="arithmetic" result="result6"></feComposite><feColorMatrix color-interpolation-filters="sRGB" in="result6" result="result7" type="matrix" values="0 0 0 0 1 0 0 0 0 1 0 0 0 0 1 0 0 0 0.25 0"></feColorMatrix><feBlend color-interpolation-filters="sRGB" in="result7" in2="shape" mode="normal" result="effect1_innerShadow_469_1856"></feBlend></filter><filter filterUnits="objectBoundingBox" height="157.962" id="filter2_i_469_1856" node-id="75" width="54.569298" x="69.3184" y="430.918"><feFlood color-interpolation-filters="sRGB" flood-color="#000000" flood-opacity="0" result="BackgroundImageFix"></feFlood><feBlend color-interpolation-filters="sRGB" in="SourceGraphic" in2="BackgroundImageFix" mode="normal" result="shape"></feBlend><feColorMatrix color-interpolation-filters="sRGB" in="SourceAlpha" result="hardAlpha" type="matrix" values="0 0 0 0 0 0 0 0 0 0 0 0 0 0 0 0 0 0 127 0"></feColorMatrix><feOffset color-interpolation-filters="sRGB" dx="2.87205" dy="2.87205" in="hardAlpha" result="result4"></feOffset><feGaussianBlur color-interpolation-filters="sRGB" in="result4" result="result5" stdDeviation="2.87205 2.87205"></feGaussianBlur><feComposite color-interpolation-filters="sRGB" in="result5" in2="hardAlpha" k1="0" k2="-1" k3="1" k4="0" operator="arithmetic" result="result6"></feComposite><feColorMatrix color-interpolation-filters="sRGB" in="result6" result="result7" type="matrix" values="0 0 0 0 1 0 0 0 0 1 0 0 0 0 1 0 0 0 0.25 0"></feColorMatrix><feBlend color-interpolation-filters="sRGB" in="result7" in2="shape" mode="normal" result="effect1_innerShadow_469_1856"></feBlend></filter><filter filterUnits="objectBoundingBox" height="100.522" id="filter3_i_469_1856" node-id="84" width="54.569275" x="870.582" y="459.6"><feFlood color-interpolation-filters="sRGB" flood-color="#000000" flood-opacity="0" result="BackgroundImageFix"></feFlood><feBlend color-interpolation-filters="sRGB" in="SourceGraphic" in2="BackgroundImageFix" mode="normal" result="shape"></feBlend><feColorMatrix color-interpolation-filters="sRGB" in="SourceAlpha" result="hardAlpha" type="matrix" values="0 0 0 0 0 0 0 0 0 0 0 0 0 0 0 0 0 0 127 0"></feColorMatrix><feOffset color-interpolation-filters="sRGB" dx="2.87205" dy="2.87205" in="hardAlpha" result="result4"></feOffset><feGaussianBlur color-interpolation-filters="sRGB" in="result4" result="result5" stdDeviation="2.87205 2.87205"></feGaussianBlur><feComposite color-interpolation-filters="sRGB" in="result5" in2="hardAlpha" k1="0" k2="-1" k3="1" k4="0" operator="arithmetic" result="result6"></feComposite><feColorMatrix color-interpolation-filters="sRGB" in="result6" result="result7" type="matrix" values="0 0 0 0 1 0 0 0 0 1 0 0 0 0 1 0 0 0 0.25 0"></feColorMatrix><feBlend color-interpolation-filters="sRGB" in="result7" in2="shape" mode="normal" result="effect1_innerShadow_469_1856"></feBlend></filter><filter filterUnits="objectBoundingBox" height="157.962" id="filter4_i_469_1856" node-id="93" width="54.569275" x="830.381" y="430.92"><feFlood color-interpolation-filters="sRGB" flood-color="#000000" flood-opacity="0" result="BackgroundImageFix"></feFlood><feBlend color-interpolation-filters="sRGB" in="SourceGraphic" in2="BackgroundImageFix" mode="normal" result="shape"></feBlend><feColorMatrix color-interpolation-filters="sRGB" in="SourceAlpha" result="hardAlpha" type="matrix" values="0 0 0 0 0 0 0 0 0 0 0 0 0 0 0 0 0 0 127 0"></feColorMatrix><feOffset color-interpolation-filters="sRGB" dx="2.87205" dy="2.87205" in="hardAlpha" result="result4"></feOffset><feGaussianBlur color-interpolation-filters="sRGB" in="result4" result="result5" stdDeviation="2.87205 2.87205"></feGaussianBlur><feComposite color-interpolation-filters="sRGB" in="result5" in2="hardAlpha" k1="0" k2="-1" k3="1" k4="0" operator="arithmetic" result="result6"></feComposite><feColorMatrix color-interpolation-filters="sRGB" in="result6" result="result7" type="matrix" values="0 0 0 0 1 0 0 0 0 1 0 0 0 0 1 0 0 0 0.25 0"></feColorMatrix><feBlend color-interpolation-filters="sRGB" in="result7" in2="shape" mode="normal" result="effect1_innerShadow_469_1856"></feBlend></filter></defs><path d="M 469.90 163.80 L 474.20 164.10 L 478.40 164.70 L 482.30 165.70 L 486.10 167.10 L 493.20 171.00 L 499.40 176.00 L 504.40 182.20 L 508.30 189.30 L 509.70 193.10 L 510.70 197.00 L 511.30 201.20 L 511.60 205.50 L 511.60 254.30 L 511.30 258.60 L 510.70 262.80 L 509.70 266.70 L 508.30 270.50 L 506.50 274.20 L 502.10 280.80 L 496.40 286.50 L 493.20 288.80 L 486.10 292.70 L 482.30 294.10 L 478.40 295.10 L 474.20 295.70 L 469.90 296.00 L 465.60 295.70 L 461.50 295.10 L 457.50 294.10 L 453.70 292.70 L 446.60 288.80 L 440.50 283.80 L 435.40 277.60 L 431.60 270.50 L 430.20 266.70 L 429.10 262.80 L 428.50 258.60 L 428.30 254.30 L 428.30 205.50 L 428.50 201.20 L 429.10 197.00 L 430.20 193.10 L 431.60 189.30 L 433.30 185.60 L 437.80 179.00 L 443.40 173.30 L 446.60 171.00 L 453.70 167.10 L 457.50 165.70 L 461.50 164.70 L 465.60 164.10 L 469.90 163.80 Z" fill="url(#paint0_linear_469_1856)" fill-rule="nonzero" node-id="414" stroke="none" target-height="132.2" target-width="83.30002" target-x="428.3" target-y="163.8"></path><path d="M 476.20 244.30 L 440.50 244.70 L 421.00 245.40 L 385.90 247.80 L 356.60 251.00 L 341.80 253.00 L 311.90 258.30 L 297.10 261.60 L 282.40 265.40 L 268.00 269.60 L 257.30 273.20 L 246.80 277.00 L 226.60 285.60 L 216.80 290.50 L 207.40 295.60 L 198.30 301.20 L 189.60 307.00 L 181.20 313.40 L 173.30 320.10 L 165.90 327.20 L 158.90 334.70 L 153.70 341.10 L 148.80 347.70 L 144.30 354.60 L 140.10 361.90 L 136.30 369.50 L 128.80 387.40 L 122.00 407.70 L 118.10 421.70 L 114.50 436.50 L 111.30 452.10 L 108.60 467.90 L 106.20 484.10 L 104.30 501.00 L 102.80 517.80 L 101.70 534.90 L 101.10 552.30 L 100.90 569.60 L 101.10 586.90 L 101.80 604.20 L 102.90 621.40 L 104.50 638.30 L 106.50 654.80 L 109.00 671.30 L 111.90 687.10 L 115.30 702.30 L 118.20 713.70 L 124.70 734.90 L 128.30 744.80 L 132.40 754.60 L 136.60 763.80 L 141.00 772.40 L 145.70 780.30 L 150.80 788.10 L 156.20 795.20 L 161.70 801.50 L 167.40 807.10 L 172.40 811.30 L 177.50 815.00 L 182.80 818.30 L 188.20 821.00 L 193.70 823.30 L 216.60 830.70 L 229.40 834.30 L 256.30 840.80 L 271.50 843.80 L 303.40 849.10 L 339.60 853.50 L 380.90 857.00 L 425.90 859.30 L 451.30 860.00 L 451.30 860.60 L 501.00 860.60 L 501.00 860.00 L 549.90 858.30 L 592.90 855.40 L 612.70 853.50 L 648.90 849.10 L 680.80 843.80 L 696.00 840.80 L 722.90 834.30 L 735.70 830.70 L 758.60 823.30 L 764.10 821.00 L 769.50 818.30 L 774.80 815.00 L 779.90 811.30 L 784.90 807.10 L 790.60 801.50 L 796.10 795.20 L 801.50 788.10 L 806.60 780.30 L 811.30 772.40 L 815.70 763.80 L 820.00 754.60 L 824.00 744.80 L 827.60 734.90 L 834.10 713.70 L 837.00 702.30 L 840.40 687.10 L 843.30 671.30 L 845.80 654.80 L 847.80 638.30 L 849.40 621.40 L 850.50 604.20 L 851.20 586.90 L 851.40 569.60 L 851.20 552.30 L 850.60 534.90 L 849.50 517.80 L 848.00 501.00 L 846.10 484.10 L 843.70 467.90 L 841.00 452.10 L 837.80 436.50 L 834.20 421.70 L 830.30 407.70 L 827.00 397.20 L 823.50 387.40 L 816.00 369.50 L 812.20 361.90 L 808.00 354.60 L 803.50 347.70 L 798.60 341.10 L 793.40 334.70 L 786.40 327.20 L 779.00 320.10 L 771.10 313.40 L 762.70 307.00 L 754.00 301.20 L 744.90 295.60 L 735.50 290.50 L 725.70 285.60 L 705.50 277.00 L 684.30 269.60 L 669.90 265.40 L 655.20 261.60 L 640.40 258.30 L 625.40 255.50 L 610.60 253.00 L 580.90 249.20 L 552.30 246.70 L 531.30 245.40 L 511.80 244.70 L 476.20 244.30 Z" fill="url(#paint1_linear_469_1856)" fill-rule="nonzero" node-id="416" stroke="none" target-height="616.3" target-width="750.5" target-x="100.9" target-y="244.3"></path><path d="M 136.30 369.50 L 140.10 361.90 L 144.30 354.60 L 148.80 347.70 L 153.70 341.10 L 158.90 334.70 L 165.90 327.20 L 173.30 320.10 L 181.20 313.40 L 189.60 307.00 L 198.30 301.20 L 207.40 295.60 L 216.80 290.50 L 226.60 285.60 L 246.80 277.00 L 268.00 269.60 L 282.40 265.40 L 297.10 261.60 L 311.90 258.30 L 326.90 255.50 L 356.60 251.00 L 371.40 249.20 L 400.10 246.70 L 421.00 245.40 L 459.40 244.30 L 492.90 244.30 L 531.30 245.40 L 552.30 246.70 L 580.90 249.20 L 610.60 253.00 L 625.40 255.50 L 640.40 258.30 L 655.20 261.60 L 669.90 265.40 L 684.30 269.60 L 705.50 277.00 L 725.70 285.60 L 735.50 290.50 L 744.90 295.60 L 754.00 301.20 L 762.70 307.00 L 771.10 313.40 L 779.00 320.10 L 786.40 327.20 L 793.40 334.70 L 798.60 341.10 L 803.50 347.70 L 808.00 354.60 L 812.20 361.90 L 816.00 369.50 L 823.50 387.40 L 830.30 407.70 L 834.20 421.70 L 837.80 436.50 L 841.00 452.10 L 843.70 467.90 L 846.10 484.10 L 848.00 501.00 L 849.50 517.80 L 850.60 534.90 L 851.20 552.30 L 851.40 569.60 L 851.20 586.90 L 850.50 604.20 L 849.40 621.40 L 847.80 638.30 L 845.80 654.80 L 843.30 671.30 L 840.40 687.10 L 837.00 702.30 L 830.90 724.50 L 824.00 744.80 L 820.00 754.60 L 815.70 763.80 L 811.30 772.40 L 806.60 780.30 L 801.50 788.10 L 796.10 795.20 L 790.60 801.50 L 784.90 807.10 L 779.90 811.30 L 774.80 815.00 L 769.50 818.30 L 764.10 821.00 L 758.60 823.30 L 735.70 830.70 L 710.00 837.60 L 696.00 840.80 L 665.60 846.50 L 648.90 849.10 L 612.70 853.50 L 571.40 857.00 L 526.50 859.30 L 501.00 860.00 L 501.00 860.60 L 451.30 860.60 L 451.30 860.00 L 402.40 858.30 L 359.40 855.40 L 339.60 853.50 L 303.40 849.10 L 286.70 846.50 L 256.30 840.80 L 242.30 837.60 L 216.60 830.70 L 193.70 823.30 L 188.20 821.00 L 182.80 818.30 L 177.50 815.00 L 172.40 811.30 L 167.40 807.10 L 161.70 801.50 L 156.20 795.20 L 150.80 788.10 L 145.70 780.30 L 141.00 772.40 L 136.60 763.80 L 132.40 754.60 L 128.30 744.80 L 124.70 734.90 L 118.20 713.70 L 115.30 702.30 L 111.90 687.10 L 109.00 671.30 L 106.50 654.80 L 104.50 638.30 L 102.90 621.40 L 101.80 604.20 L 101.10 586.90 L 100.90 569.60 L 101.10 552.30 L 101.70 534.90 L 102.80 517.80 L 104.30 501.00 L 106.20 484.10 L 108.60 467.90 L 111.30 452.10 L 114.50 436.50 L 118.10 421.70 L 122.00 407.70 L 125.30 397.20 L 128.80 387.40 L 136.30 369.50 Z M 154.50 405.70 L 158.10 398.90 L 162.00 392.40 L 166.30 386.10 L 170.90 380.20 L 175.80 374.50 L 182.40 367.70 L 189.40 361.30 L 196.90 355.30 L 204.90 349.60 L 213.10 344.30 L 221.60 339.30 L 230.50 334.60 L 239.80 330.30 L 252.40 325.00 L 265.50 320.20 L 278.90 315.90 L 292.60 312.10 L 306.40 308.70 L 320.50 305.80 L 334.60 303.20 L 362.70 299.10 L 383.60 296.90 L 403.80 295.30 L 423.60 294.10 L 442.00 293.50 L 475.70 293.10 L 509.30 293.50 L 527.80 294.10 L 547.60 295.30 L 567.80 296.90 L 588.70 299.10 L 616.80 303.20 L 630.90 305.80 L 644.90 308.70 L 658.80 312.10 L 672.40 315.90 L 685.90 320.20 L 698.90 325.00 L 711.50 330.30 L 720.80 334.60 L 729.70 339.30 L 738.30 344.30 L 746.50 349.60 L 754.40 355.30 L 761.90 361.30 L 768.90 367.70 L 775.50 374.50 L 780.50 380.20 L 785.10 386.10 L 789.40 392.40 L 793.30 398.90 L 796.90 405.70 L 800.80 414.30 L 804.60 423.50 L 808.20 433.30 L 811.60 443.80 L 815.50 457.90 L 819.00 472.80 L 822.10 488.60 L 824.70 504.40 L 826.80 520.80 L 828.40 537.60 L 829.60 554.50 L 830.20 571.60 L 830.40 588.80 L 830.00 606.00 L 829.10 623.00 L 827.80 639.80 L 825.90 656.50 L 823.50 672.70 L 820.60 688.40 L 818.00 700.10 L 815.10 711.40 L 808.60 732.30 L 804.70 742.60 L 800.60 752.20 L 796.20 761.10 L 791.60 769.40 L 787.60 776.00 L 783.30 782.00 L 778.90 787.60 L 774.40 792.70 L 769.70 797.30 L 764.60 801.70 L 759.40 805.50 L 754.00 808.80 L 748.40 811.50 L 742.60 813.80 L 721.00 820.50 L 696.70 826.70 L 683.50 829.60 L 654.70 834.70 L 639.00 837.00 L 604.70 841.00 L 565.70 844.20 L 523.20 846.20 L 499.20 846.90 L 499.20 847.40 L 452.20 847.40 L 452.20 846.90 L 406.00 845.30 L 365.30 842.70 L 346.60 841.00 L 312.40 837.00 L 296.60 834.70 L 267.90 829.60 L 254.60 826.70 L 230.40 820.50 L 208.80 813.80 L 203.00 811.50 L 197.40 808.80 L 192.00 805.50 L 186.70 801.70 L 181.70 797.30 L 177.00 792.70 L 172.40 787.60 L 168.10 782.00 L 163.80 776.00 L 159.70 769.40 L 155.10 761.10 L 150.80 752.20 L 146.70 742.60 L 142.80 732.30 L 136.30 711.40 L 133.40 700.10 L 130.80 688.40 L 127.90 672.70 L 125.50 656.50 L 123.60 639.80 L 122.20 623.00 L 121.30 606.00 L 121.00 588.80 L 121.10 571.60 L 121.80 554.50 L 122.90 537.60 L 124.60 520.80 L 126.70 504.40 L 129.20 488.60 L 132.30 472.80 L 135.90 457.90 L 139.80 443.80 L 143.20 433.30 L 146.70 423.50 L 150.50 414.30 L 154.50 405.70 Z" fill="url(#paint2_linear_469_1856)" fill-rule="evenodd" node-id="418" stroke="none" target-height="616.3" target-width="750.5" target-x="100.9" target-y="244.3"></path><path d="M 475.70 275.90 L 443.60 276.20 L 426.10 276.90 L 407.20 277.90 L 388.10 279.40 L 368.10 281.60 L 354.80 283.30 L 328.00 287.90 L 314.60 290.70 L 301.50 293.90 L 288.50 297.50 L 275.70 301.60 L 263.30 306.10 L 251.30 311.10 L 242.40 315.30 L 233.90 319.70 L 225.80 324.40 L 218.00 329.40 L 210.50 334.80 L 203.30 340.60 L 196.70 346.60 L 190.40 353.00 L 185.70 358.40 L 181.30 364.10 L 177.20 370.00 L 173.50 376.20 L 170.00 382.60 L 162.70 399.50 L 156.10 418.80 L 152.40 432.10 L 149.00 446.30 L 146.00 461.20 L 143.60 476.20 L 141.60 491.80 L 140.00 507.70 L 139.00 523.80 L 138.40 539.90 L 138.20 556.20 L 138.50 572.60 L 139.40 588.70 L 140.70 604.60 L 142.50 620.50 L 144.80 635.80 L 147.50 650.70 L 150.00 661.80 L 152.80 672.50 L 159.00 692.40 L 162.60 702.10 L 166.50 711.20 L 170.70 719.60 L 175.00 727.50 L 179.90 735.20 L 185.10 742.20 L 190.40 748.40 L 195.90 754.00 L 200.80 758.10 L 205.70 761.70 L 210.90 764.80 L 216.20 767.50 L 221.70 769.60 L 242.30 776.00 L 253.80 779.10 L 277.90 784.50 L 291.60 787.20 L 320.30 791.60 L 352.90 795.40 L 390.00 798.40 L 430.40 800.30 L 453.30 801.00 L 453.30 801.50 L 498.00 801.50 L 498.00 801.00 L 542.00 799.50 L 580.70 797.00 L 598.40 795.40 L 631.00 791.60 L 659.70 787.20 L 673.40 784.50 L 697.60 779.10 L 709.10 776.00 L 729.60 769.60 L 735.10 767.50 L 740.50 764.80 L 745.60 761.70 L 750.60 758.10 L 755.40 754.00 L 761.00 748.40 L 766.30 742.20 L 771.40 735.20 L 776.30 727.50 L 780.60 719.60 L 784.80 711.20 L 788.70 702.10 L 792.40 692.40 L 798.60 672.50 L 801.30 661.80 L 803.80 650.70 L 806.50 635.80 L 808.80 620.50 L 810.70 604.60 L 812.00 588.70 L 812.80 572.60 L 813.10 556.20 L 813.00 539.90 L 812.40 523.80 L 811.30 507.70 L 809.70 491.80 L 807.70 476.20 L 805.30 461.20 L 802.30 446.30 L 799.00 432.10 L 795.20 418.80 L 788.60 399.50 L 781.30 382.60 L 777.80 376.20 L 774.10 370.00 L 770.00 364.10 L 765.70 358.40 L 760.90 353.00 L 754.70 346.60 L 748.00 340.60 L 740.90 334.80 L 733.30 329.40 L 725.50 324.40 L 717.40 319.70 L 708.90 315.30 L 700.10 311.10 L 688.10 306.10 L 675.70 301.60 L 662.80 297.50 L 649.90 293.90 L 636.70 290.70 L 623.30 287.90 L 596.50 283.30 L 583.20 281.60 L 563.30 279.40 L 544.10 277.90 L 525.20 276.90 L 507.70 276.20 L 475.70 275.90 Z" fill="url(#paint3_linear_469_1856)" fill-rule="nonzero" node-id="420" stroke="none" target-height="525.6" target-width="674.89996" target-x="138.2" target-y="275.9"></path><path d="M 475.70 425.20 L 449.50 425.50 L 419.60 426.70 L 403.80 427.80 L 387.60 429.40 L 371.30 431.50 L 355.20 434.10 L 344.50 436.30 L 324.10 441.40 L 314.20 444.50 L 304.80 447.90 L 296.00 451.70 L 289.60 454.90 L 277.90 461.80 L 272.70 465.60 L 267.80 469.70 L 263.30 474.10 L 259.40 478.70 L 255.90 483.50 L 252.50 489.20 L 249.40 495.20 L 246.50 501.80 L 243.80 508.80 L 240.80 518.30 L 238.20 528.40 L 236.10 539.00 L 234.60 549.70 L 233.60 560.60 L 233.00 571.70 L 233.10 582.90 L 233.70 593.90 L 234.80 604.80 L 236.50 615.70 L 238.70 626.00 L 241.50 636.00 L 244.00 643.30 L 246.80 650.30 L 249.90 656.80 L 253.30 662.90 L 257.10 668.80 L 261.30 674.20 L 265.70 679.00 L 270.40 683.30 L 274.50 686.50 L 278.80 689.20 L 283.30 691.50 L 288.00 693.50 L 293.00 695.00 L 306.70 698.20 L 322.50 701.30 L 339.20 704.00 L 358.80 706.50 L 379.50 708.50 L 403.90 710.20 L 429.60 711.40 L 459.60 712.10 L 459.60 712.40 L 491.80 712.40 L 491.80 712.10 L 521.80 711.40 L 547.50 710.20 L 571.90 708.50 L 592.60 706.50 L 612.20 704.00 L 628.90 701.30 L 644.70 698.20 L 658.30 695.00 L 663.30 693.50 L 668.10 691.50 L 672.60 689.20 L 676.90 686.50 L 680.90 683.30 L 685.70 679.00 L 690.10 674.20 L 694.20 668.80 L 698.10 662.90 L 701.50 656.80 L 704.60 650.30 L 707.40 643.30 L 709.90 636.00 L 712.70 626.00 L 714.90 615.70 L 716.60 604.80 L 717.70 593.90 L 718.30 582.90 L 718.30 571.70 L 717.80 560.60 L 716.80 549.70 L 715.30 539.00 L 713.20 528.40 L 710.60 518.30 L 707.60 508.80 L 704.90 501.80 L 702.00 495.20 L 698.80 489.20 L 695.50 483.50 L 692.00 478.70 L 688.00 474.10 L 683.60 469.70 L 678.60 465.60 L 673.40 461.80 L 661.80 454.90 L 655.30 451.70 L 646.50 447.90 L 637.20 444.50 L 627.30 441.40 L 617.30 438.70 L 596.20 434.10 L 580.10 431.50 L 563.80 429.40 L 547.60 427.80 L 516.30 425.90 L 475.70 425.20 Z" fill="#ffb629" fill-rule="nonzero" node-id="422" stroke="none" target-height="287.2" target-width="485.3" target-x="233" target-y="425.2"></path><path d="M 532.90 651.60 L 528.70 648.10 L 523.60 644.60 L 515.90 640.60 L 511.50 638.90 L 506.90 637.60 L 502.00 636.70 L 496.60 636.40 L 488.30 636.90 L 478.80 639.00 L 474.10 640.60 L 463.80 645.40 L 452.60 652.30 L 446.90 656.50 L 434.10 667.60" fill="none" node-id="424" stroke="#000000" stroke-linecap="round" stroke-width="22.4753" target-height="31.199951" target-width="98.80002" target-x="434.1" target-y="636.4"></path><path d="M 258.80 486.40 L 262.30 481.50 L 266.20 476.90 L 270.70 472.60 L 275.60 468.40 L 286.40 461.10 L 298.90 454.50 L 307.70 450.80 L 317.00 447.30 L 327.00 444.20 L 337.00 441.50 L 358.00 437.00 L 374.20 434.30 L 390.40 432.30 L 406.70 430.70 L 438.00 428.80 L 466.40 428.10 L 504.70 428.30 L 534.70 429.50 L 550.40 430.70 L 566.70 432.30 L 583.00 434.30 L 599.10 437.00 L 609.80 439.10 L 630.20 444.20 L 640.10 447.30 L 649.40 450.80 L 658.20 454.50 L 664.70 457.70 L 670.70 461.10 L 681.50 468.40 L 686.50 472.60 L 690.90 476.90 L 694.90 481.50 L 698.40 486.40 L 702.20 492.90 L 705.80 500.00 L 709.10 507.80 L 711.90 515.80 L 714.30 524.20 L 716.50 533.10 L 718.20 542.10 L 719.50 551.30 L 721.10 570.30 L 721.00 589.40 L 720.30 578.90 L 719.20 568.60 L 717.60 558.60 L 715.40 548.60 L 712.90 539.20 L 709.90 530.30 L 704.50 517.50 L 698.40 506.50 L 694.90 501.60 L 690.90 497.00 L 686.50 492.70 L 681.50 488.50 L 670.70 481.20 L 658.20 474.60 L 649.40 470.90 L 640.10 467.40 L 630.20 464.30 L 620.10 461.60 L 599.10 457.10 L 583.00 454.40 L 566.70 452.40 L 550.40 450.80 L 519.10 448.90 L 478.60 448.10 L 438.00 448.90 L 406.70 450.80 L 390.40 452.40 L 374.20 454.40 L 358.00 457.10 L 337.00 461.60 L 327.00 464.30 L 317.00 467.40 L 307.70 470.90 L 298.90 474.60 L 286.40 481.20 L 275.60 488.50 L 270.70 492.70 L 266.20 497.00 L 262.30 501.60 L 258.80 506.50 L 252.60 517.50 L 247.20 530.30 L 244.20 539.20 L 241.70 548.60 L 239.60 558.60 L 238.00 568.60 L 236.80 578.90 L 236.10 589.40 L 235.90 579.90 L 236.60 560.80 L 237.60 551.30 L 238.90 542.10 L 240.70 533.10 L 242.80 524.20 L 245.30 515.80 L 248.10 507.80 L 251.40 500.00 L 254.90 492.90 L 258.80 486.40 Z" fill="#e19808" fill-rule="nonzero" node-id="426" stroke="none" target-height="161.30002" target-width="485.19998" target-x="235.9" target-y="428.1"></path><g node-id="524"><path d="M 216.90 460.80 L 221.00 454.70 L 225.70 449.00 L 230.90 443.50 L 236.70 438.30 L 242.90 433.60 L 249.50 429.20 L 256.60 425.00 L 264.20 421.00 L 274.50 416.30 L 285.50 412.00 L 297.20 408.10 L 309.00 404.70 L 321.20 401.70 L 333.80 399.00 L 359.10 394.80 L 391.10 391.20 L 409.60 389.70 L 427.90 388.80 L 444.90 388.20 L 475.70 387.90 L 506.50 388.20 L 523.50 388.80 L 541.80 389.70 L 560.30 391.20 L 592.30 394.80 L 617.60 399.00 L 630.20 401.70 L 642.40 404.70 L 654.20 408.10 L 665.90 412.00 L 676.90 416.30 L 687.20 421.00 L 694.80 425.00 L 701.90 429.20 L 708.50 433.60 L 714.60 438.30 L 720.50 443.50 L 725.70 449.00 L 730.40 454.70 L 734.50 460.80 L 741.40 473.70 L 747.40 488.50 L 750.80 498.90 L 753.70 509.80 L 756.20 521.30 L 758.20 533.00 L 759.80 544.90 L 760.80 557.20 L 761.40 569.50 L 761.40 581.80 L 761.00 594.20 L 760.00 606.50 L 758.60 618.50 L 756.60 630.20 L 752.60 647.40 L 747.50 663.30 L 744.50 671.00 L 741.10 678.30 L 737.50 685.10 L 733.60 691.50 L 729.30 697.70 L 724.70 703.20 L 719.90 708.30 L 714.70 712.80 L 710.30 716.00 L 705.80 718.90 L 701.00 721.40 L 696.00 723.40 L 690.70 725.10 L 680.30 727.80 L 668.80 730.50 L 643.30 735.30 L 613.30 739.50 L 579.90 742.70 L 540.60 745.10 L 494.60 746.60 L 494.60 746.90 L 456.70 746.90 L 456.70 746.60 L 432.60 746.00 L 391.10 744.10 L 353.90 741.20 L 338.00 739.50 L 308.00 735.30 L 295.30 733.10 L 271.10 727.80 L 260.60 725.10 L 255.40 723.40 L 250.40 721.40 L 245.60 718.90 L 241.00 716.00 L 236.60 712.80 L 231.50 708.30 L 226.70 703.20 L 222.10 697.70 L 217.70 691.50 L 213.90 685.10 L 210.30 678.30 L 206.90 671.00 L 201.20 655.50 L 196.60 639.00 L 194.80 630.20 L 192.80 618.50 L 191.40 606.50 L 190.40 594.20 L 190.00 581.80 L 190.00 569.50 L 190.60 557.20 L 191.60 544.90 L 193.10 533.00 L 195.10 521.30 L 197.60 509.80 L 200.60 498.90 L 204.00 488.50 L 210.00 473.70 L 216.90 460.80 Z M 255.90 483.60 L 259.40 478.70 L 263.30 474.10 L 267.80 469.70 L 272.80 465.60 L 283.50 458.30 L 289.60 454.90 L 296.00 451.70 L 304.80 448.00 L 314.20 444.50 L 324.10 441.40 L 344.50 436.30 L 355.20 434.20 L 371.30 431.50 L 387.60 429.40 L 403.80 427.80 L 435.10 425.90 L 475.70 425.20 L 516.30 425.90 L 547.60 427.80 L 563.80 429.40 L 580.10 431.50 L 596.20 434.20 L 606.90 436.30 L 627.30 441.40 L 637.20 444.50 L 646.50 448.00 L 655.30 451.70 L 661.80 454.90 L 673.40 461.80 L 678.60 465.60 L 683.60 469.70 L 688.00 474.10 L 692.00 478.70 L 695.50 483.60 L 698.80 489.20 L 702.00 495.20 L 704.90 501.80 L 707.60 508.80 L 710.60 518.30 L 713.20 528.40 L 715.30 539.00 L 716.80 549.70 L 717.80 560.60 L 718.30 571.80 L 718.30 582.90 L 717.70 593.90 L 716.60 604.80 L 714.90 615.70 L 712.70 626.10 L 709.90 636.00 L 707.40 643.40 L 704.60 650.30 L 701.50 656.80 L 698.10 662.90 L 694.20 668.80 L 690.10 674.20 L 685.70 679.00 L 680.90 683.40 L 676.90 686.50 L 672.60 689.20 L 668.10 691.50 L 663.30 693.50 L 658.30 695.00 L 644.70 698.20 L 628.90 701.40 L 612.20 704.00 L 592.60 706.50 L 571.90 708.50 L 547.50 710.20 L 521.80 711.40 L 491.80 712.20 L 491.80 712.40 L 459.60 712.40 L 459.60 712.20 L 429.60 711.40 L 403.90 710.20 L 379.50 708.50 L 358.80 706.50 L 339.20 704.00 L 322.50 701.40 L 306.70 698.20 L 293.00 695.00 L 288.00 693.50 L 283.30 691.50 L 278.80 689.20 L 274.50 686.50 L 270.40 683.40 L 265.70 679.00 L 261.30 674.20 L 257.10 668.80 L 253.30 662.90 L 249.90 656.80 L 246.80 650.30 L 244.00 643.40 L 241.50 636.00 L 238.70 626.10 L 236.50 615.70 L 234.80 604.80 L 233.70 593.90 L 233.10 582.90 L 233.00 571.80 L 233.60 560.60 L 234.60 549.70 L 236.10 539.00 L 238.20 528.40 L 240.80 518.30 L 243.80 508.80 L 246.50 501.80 L 249.40 495.20 L 252.50 489.20 L 255.90 483.60 Z" fill="url(#paint4_linear_469_1856)" fill-rule="evenodd" filter="url(#filter0_ddd_469_1856)" group-id="1" node-id="430" stroke="none" target-height="359.00003" target-width="571.4" target-x="190" target-y="387.9"></path></g><path d="M 813.20 318.30 L 812.90 321.00 L 812.20 323.60 L 811.10 326.30 L 809.40 329.00 L 807.00 331.90 L 804.00 334.80 L 800.40 337.70 L 796.10 340.60 L 784.90 346.70 L 769.40 353.20 L 749.00 359.90 L 736.80 363.20 L 720.80 367.10 L 702.90 370.80 L 683.00 374.30 L 663.10 377.40 L 641.60 380.30 L 618.50 382.80 L 595.40 385.00 L 571.00 386.80 L 545.40 388.20 L 519.70 389.30 L 493.20 389.90 L 465.70 390.10 L 438.20 389.90 L 411.60 389.30 L 386.00 388.20 L 360.30 386.80 L 336.00 385.00 L 312.80 382.80 L 289.70 380.30 L 268.20 377.40 L 248.30 374.30 L 228.40 370.80 L 210.50 367.10 L 194.50 363.20 L 182.30 359.90 L 161.90 353.20 L 146.40 346.70 L 135.20 340.60 L 127.30 334.80 L 124.30 331.90 L 122.00 329.00 L 120.30 326.30 L 119.10 323.60 L 118.40 321.00 L 118.20 318.30 L 118.40 315.70 L 119.10 313.00 L 120.30 310.30 L 122.00 307.60 L 124.30 304.80 L 127.30 301.90 L 130.90 299.00 L 140.40 293.00 L 153.50 286.70 L 171.50 280.10 L 194.50 273.40 L 210.50 269.60 L 228.40 265.90 L 248.30 262.30 L 268.20 259.20 L 289.70 256.40 L 312.80 253.80 L 336.00 251.70 L 360.30 249.90 L 386.00 248.40 L 411.60 247.40 L 438.20 246.70 L 465.70 246.50 L 493.20 246.70 L 519.70 247.40 L 545.40 248.40 L 571.00 249.90 L 595.40 251.70 L 618.50 253.80 L 641.60 256.40 L 663.10 259.20 L 683.00 262.30 L 702.90 265.90 L 720.80 269.60 L 736.80 273.40 L 749.00 276.70 L 769.40 283.40 L 784.90 289.90 L 796.10 296.00 L 800.40 299.00 L 804.00 301.90 L 807.00 304.80 L 809.40 307.60 L 811.10 310.30 L 812.20 313.00 L 812.90 315.70 L 813.20 318.30 Z" fill="url(#paint5_linear_469_1856)" fill-opacity="0.16" fill-rule="nonzero" node-id="433" stroke="none" target-height="143.6" target-width="695" target-x="118.2" target-y="246.5"></path><path d="M 635.10 298.20 L 634.80 299.40 L 634.00 300.70 L 632.40 302.00 L 629.70 303.60 L 626.00 305.10 L 621.00 306.70 L 614.30 308.40 L 603.90 310.40 L 590.50 312.40 L 576.30 314.10 L 559.70 315.60 L 542.40 316.70 L 503.80 318.10 L 482.90 318.30 L 462.00 318.10 L 423.30 316.70 L 406.10 315.60 L 389.50 314.10 L 375.30 312.40 L 361.90 310.40 L 351.50 308.40 L 344.80 306.70 L 339.80 305.10 L 336.10 303.60 L 333.40 302.00 L 331.80 300.70 L 331.00 299.40 L 330.70 298.20 L 331.00 297.00 L 331.80 295.80 L 333.40 294.40 L 336.10 292.90 L 339.80 291.40 L 344.80 289.80 L 351.50 288.10 L 361.90 286.00 L 375.30 284.00 L 389.50 282.30 L 406.10 280.90 L 423.30 279.70 L 462.00 278.30 L 482.90 278.10 L 503.80 278.30 L 542.40 279.70 L 559.70 280.90 L 576.30 282.30 L 590.50 284.00 L 603.90 286.00 L 614.30 288.10 L 621.00 289.80 L 626.00 291.40 L 629.70 292.90 L 632.40 294.40 L 634.00 295.80 L 634.80 297.00 L 635.10 298.20 Z" fill="#ffffff" fill-opacity="0.4" fill-rule="nonzero" node-id="435" stroke="none" target-height="40.19998" target-width="304.39996" target-x="330.7" target-y="278.1"></path><path d="M 190.00 577.10 L 190.10 566.50 L 191.50 545.50 L 235.90 540.20 L 234.50 550.60 L 233.50 561.10 L 233.10 571.90 L 190.00 577.10 Z M 744.00 479.20 L 747.60 488.60 L 750.90 498.60 L 753.80 509.30 L 709.70 514.60 L 706.90 506.50 L 703.90 498.80 L 700.40 491.50 L 696.60 484.90 L 744.00 479.20 Z M 631.60 401.50 L 652.80 407.20 L 662.80 410.40 L 672.70 414.10 L 682.10 418.10 L 690.90 422.40 L 697.40 425.90 L 709.30 433.70 L 714.60 437.80 L 719.70 442.30 L 724.40 447.00 L 728.60 451.90 L 732.50 457.10 L 676.90 463.80 L 666.00 456.70 L 660.00 453.40 L 653.50 450.40 L 644.70 446.70 L 635.40 443.40 L 625.50 440.40 L 605.30 435.40 L 594.70 433.40 L 578.80 430.80 L 562.70 428.80 L 546.60 427.30 L 515.80 425.40 L 475.70 424.70 L 454.80 424.90 L 431.20 425.60 L 631.60 401.50 Z M 224.00 450.50 L 220.20 455.30 L 216.90 460.30 L 210.00 473.40 L 206.80 480.60 L 203.90 488.40 L 200.50 498.90 L 197.50 510.00 L 195.00 521.70 L 241.30 516.10 L 244.30 507.00 L 247.70 498.50 L 253.10 487.80 L 255.90 483.10 L 259.00 478.70 L 262.50 474.50 L 266.40 470.60 L 270.70 466.80 L 276.80 462.20 L 283.50 457.80 L 290.80 453.80 L 298.40 450.20 L 306.50 446.80 L 315.00 443.80 L 332.70 438.60 L 342.10 436.30 L 224.00 450.50 Z" fill="#ffffff" fill-opacity="0.13" fill-rule="evenodd" node-id="437" stroke="none" target-height="175.59998" target-width="563.8" target-x="190" target-y="401.5"></path><g node-id="525"><path d="M 40.40 214.60 L 42.00 214.50 L 44.80 215.30 L 46.80 217.40 L 47.40 218.80 L 108.00 465.80 L 108.00 468.70 L 107.40 470.10 L 105.20 472.20 L 103.80 472.70 L 102.30 472.90 L 99.50 472.10 L 98.30 471.10 L 96.90 468.50 L 36.20 221.60 L 36.10 220.00 L 36.90 217.20 L 39.00 215.20 L 40.40 214.60 Z" fill="url(#paint6_linear_469_1856)" fill-rule="nonzero" group-id="2" node-id="441" stroke="none" target-height="258.4" target-width="71.9" target-x="36.1" target-y="214.5"></path></g><path d="M 60.70 206.90 L 60.30 210.60 L 59.40 213.90 L 57.90 217.10 L 55.90 219.90 L 53.60 222.30 L 50.70 224.30 L 47.60 225.70 L 44.30 226.70 L 40.60 227.00 L 36.90 226.70 L 33.60 225.70 L 30.40 224.30 L 27.60 222.30 L 25.20 219.90 L 23.20 217.10 L 21.70 213.90 L 20.80 210.60 L 20.50 206.90 L 20.80 203.20 L 21.70 199.90 L 23.20 196.80 L 25.20 193.90 L 27.60 191.50 L 30.40 189.50 L 33.60 188.10 L 36.90 187.10 L 40.60 186.80 L 44.30 187.10 L 47.60 188.10 L 50.70 189.50 L 53.60 191.50 L 55.90 193.90 L 57.90 196.80 L 59.40 199.90 L 60.30 203.20 L 60.70 206.90 Z" fill="url(#paint7_linear_469_1856)" fill-rule="nonzero" node-id="444" stroke="none" target-height="40.199997" target-width="40.2" target-x="20.5" target-y="186.8"></path><g node-id="526"><path d="M 40.60 459.60 L 63.60 459.60 L 66.20 459.90 L 68.60 460.50 L 70.80 461.60 L 72.80 463.00 L 74.50 464.70 L 76.00 466.80 L 77.00 469.00 L 77.70 471.40 L 77.90 474.00 L 77.90 542.90 L 77.70 545.70 L 76.80 548.40 L 75.50 550.90 L 73.70 553.10 L 71.50 554.90 L 69.10 556.20 L 66.40 557.00 L 63.60 557.30 L 40.60 557.30 L 37.80 557.00 L 35.10 556.20 L 32.60 554.90 L 30.40 553.10 L 28.60 550.90 L 27.30 548.40 L 26.50 545.70 L 26.20 542.90 L 26.20 474.00 L 26.50 471.40 L 27.10 469.00 L 28.20 466.80 L 29.60 464.70 L 31.30 463.00 L 33.40 461.60 L 35.60 460.50 L 38.00 459.90 L 40.60 459.60 Z" fill="url(#paint8_linear_469_1856)" fill-rule="nonzero" filter="url(#filter1_i_469_1856)" group-id="3" node-id="448" stroke="none" target-height="97.69998" target-width="51.7" target-x="26.2" target-y="459.6"></path></g><g node-id="527"><path d="M 83.70 430.90 L 106.70 430.90 L 109.30 431.20 L 111.70 431.80 L 113.90 432.90 L 115.90 434.30 L 117.60 436.00 L 119.10 438.00 L 120.10 440.30 L 120.80 442.70 L 121.00 445.30 L 121.00 571.60 L 120.70 574.50 L 119.90 577.10 L 118.60 579.60 L 116.80 581.80 L 114.60 583.60 L 112.20 584.90 L 109.50 585.70 L 106.70 586.00 L 83.70 586.00 L 80.90 585.70 L 78.20 584.90 L 75.70 583.60 L 73.50 581.80 L 71.70 579.60 L 70.40 577.10 L 69.60 574.50 L 69.30 571.60 L 69.30 445.30 L 69.60 442.70 L 70.20 440.30 L 71.30 438.00 L 72.70 436.00 L 74.40 434.30 L 76.40 432.90 L 78.70 431.80 L 81.10 431.20 L 83.70 430.90 Z" fill="url(#paint9_linear_469_1856)" fill-rule="nonzero" filter="url(#filter2_i_469_1856)" group-id="4" node-id="453" stroke="none" target-height="155.1" target-width="51.699997" target-x="69.3" target-y="430.9"></path></g><path d="M 69.30 451.00 L 121.00 451.00 L 121.00 476.90 L 69.30 476.90 Z" fill="url(#paint10_linear_469_1856)" fill-opacity="0.3" fill-rule="nonzero" node-id="456" stroke="none" target-height="25.899994" target-width="51.699997" target-x="69.3" target-y="451"></path><path d="M 26.20 474.00 L 69.30 474.00 L 69.30 499.80 L 26.20 499.80 Z" fill="url(#paint11_linear_469_1856)" fill-opacity="0.2" fill-rule="nonzero" node-id="458" stroke="none" target-height="25.799988" target-width="43.100002" target-x="26.2" target-y="474"></path><path d="M 69.30 488.40 L 121.00 488.40 L 121.00 497.00 L 69.30 497.00 Z" fill="#ffffff" fill-opacity="0.15" fill-rule="nonzero" node-id="460" stroke="none" target-height="8.600006" target-width="51.699997" target-x="69.3" target-y="488.4"></path><path d="M 69.30 502.70 L 121.00 502.70 L 121.00 505.60 L 69.30 505.60 Z" fill="#ffffff" fill-opacity="0.15" fill-rule="nonzero" node-id="462" stroke="none" target-height="2.899994" target-width="51.699997" target-x="69.3" target-y="502.7"></path><path d="M 700.40 367.00 L 716.60 351.80 L 735.10 335.50 L 758.70 315.60 L 786.20 294.00 L 801.00 283.10 L 826.80 265.30 L 847.80 252.30 L 858.50 246.30 L 879.30 235.80 L 889.80 231.20 L 899.90 227.40 L 909.60 224.40 L 917.10 222.50 L 924.20 221.10 L 931.00 220.30 L 937.50 219.90 L 945.30 225.60 L 955.20 234.50 L 964.80 244.80 L 969.60 250.60 L 974.70 257.40 L 979.90 265.20 L 984.70 273.20 L 989.40 282.20 L 994.10 292.30 L 1000.00 308.20 L 1002.60 317.00 L 1005.00 326.60 L 1006.90 336.00 L 1008.50 346.00 L 1009.70 356.80 L 1010.40 368.30 L 1007.00 368.60 L 1000.40 370.30 L 988.40 374.10 L 969.40 380.80 L 941.80 391.20 L 904.10 406.20 L 854.70 426.60 L 857.30 416.60 L 858.50 406.70 L 858.30 399.40 L 856.90 392.20 L 855.50 388.80 L 853.70 385.60 L 850.10 381.40 L 844.90 377.90 L 839.90 375.70 L 834.10 373.70 L 827.50 371.90 L 813.60 369.10 L 794.10 366.80 L 782.00 365.90 L 769.80 365.40 L 746.40 365.10 L 717.50 366.00 L 700.40 367.00 Z" fill="#f15b3a" fill-rule="nonzero" node-id="464" stroke="none" target-height="206.70001" target-width="310" target-x="700.4" target-y="219.9"></path><path d="M 854.80 426.60 L 856.40 421.20 L 857.70 415.50 L 908.30 394.40 L 945.20 379.50 L 986.40 363.70 L 995.10 360.80 L 999.40 359.70 L 998.50 349.50 L 997.30 340.00 L 995.80 331.10 L 993.90 322.90 L 991.70 314.50 L 986.60 299.40 L 983.80 292.70 L 979.60 283.90 L 975.40 276.00 L 971.10 268.90 L 966.40 262.10 L 957.70 251.10 L 951.20 244.10 L 945.70 238.90 L 940.50 234.40 L 933.70 229.50 L 927.80 229.90 L 921.50 230.60 L 915.00 231.90 L 908.20 233.60 L 899.30 236.40 L 890.00 239.90 L 880.30 244.10 L 861.20 253.70 L 851.40 259.30 L 836.90 268.10 L 822.50 277.60 L 808.40 287.50 L 781.80 307.70 L 769.70 317.40 L 748.00 335.70 L 731.10 350.70 L 716.20 364.60 L 731.80 363.70 L 758.40 362.90 L 779.90 363.10 L 791.10 363.60 L 813.00 365.50 L 823.40 367.10 L 832.80 369.10 L 838.90 370.70 L 844.20 372.60 L 848.80 374.60 L 852.30 376.70 L 855.00 379.00 L 857.00 381.50 L 858.70 384.40 L 859.80 387.30 L 860.60 390.40 L 861.10 395.10 L 861.00 399.80 L 859.60 408.00 L 857.80 413.80 L 858.60 404.20 L 858.30 399.20 L 857.40 394.10 L 856.50 390.90 L 855.10 387.80 L 853.30 384.90 L 851.10 382.30 L 848.30 379.90 L 845.00 377.90 L 839.90 375.60 L 834.10 373.60 L 827.50 371.80 L 813.50 369.00 L 794.10 366.70 L 782.00 365.80 L 769.80 365.30 L 746.30 365.10 L 717.40 365.90 L 700.40 367.00 L 716.60 351.80 L 746.10 326.10 L 771.90 305.00 L 801.00 283.10 L 826.80 265.30 L 847.80 252.30 L 869.00 240.70 L 879.30 235.80 L 889.80 231.20 L 899.90 227.40 L 909.60 224.40 L 917.10 222.50 L 924.20 221.10 L 931.00 220.30 L 937.50 219.90 L 945.30 225.60 L 951.20 230.70 L 959.70 239.20 L 964.80 244.80 L 969.60 250.70 L 974.70 257.40 L 979.90 265.20 L 984.70 273.30 L 989.40 282.30 L 994.10 292.40 L 997.10 300.00 L 1000.00 308.20 L 1002.60 317.10 L 1005.00 326.60 L 1006.90 336.00 L 1008.50 346.00 L 1009.70 356.80 L 1010.40 368.30 L 1007.00 368.60 L 1000.40 370.30 L 988.40 374.10 L 969.40 380.70 L 941.90 391.20 L 904.20 406.20 L 854.80 426.60 Z" fill="#7e282c" fill-rule="nonzero" node-id="466" stroke="none" target-height="206.70001" target-width="310" target-x="700.4" target-y="219.9"></path><path d="M 760.30 313.90 L 778.40 314.30 L 798.20 315.90 L 809.80 317.40 L 831.50 321.30 L 850.00 326.00 L 859.40 328.90 L 868.80 332.30 L 878.30 336.20 L 887.60 340.50 L 896.70 345.30 L 905.60 350.80 L 912.10 355.20 L 918.30 359.90 L 924.40 365.10 L 930.20 370.60 L 935.60 376.40 L 940.80 382.70 L 945.60 389.30 L 950.10 396.50 L 954.00 403.80 L 957.60 411.70 L 960.70 420.20 L 963.40 429.20 L 962.80 430.80 L 960.10 435.90 L 953.60 445.30 L 942.10 459.70 L 923.90 479.90 L 897.60 506.50 L 891.90 490.80 L 884.70 474.40 L 880.20 465.10 L 874.70 455.20 L 866.60 442.00 L 857.10 429.00 L 852.00 422.90 L 846.50 417.10 L 840.70 411.70 L 834.70 406.80 L 828.30 402.60 L 823.40 399.70 L 818.20 397.40 L 812.90 395.40 L 807.50 393.90 L 801.90 392.90 L 796.20 392.50 L 790.20 392.60 L 784.00 393.30 L 774.20 395.70 L 763.60 400.00 L 753.40 405.40 L 746.60 407.90 L 744.10 408.40 L 741.50 408.40 L 739.40 408.10 L 737.70 407.30 L 736.30 406.20 L 735.20 404.70 L 733.70 400.70 L 733.30 398.00 L 733.50 390.40 L 735.70 378.50 L 737.80 370.60 L 740.30 362.70 L 746.10 346.70 L 754.60 326.30 L 760.30 313.90 Z" fill="#f15b3a" fill-rule="nonzero" node-id="468" stroke="none" target-height="192.6" target-width="230.10004" target-x="733.3" target-y="313.9"></path><path d="M 900.70 506.50 L 894.80 491.00 L 887.50 474.90 L 882.80 465.90 L 877.30 456.10 L 868.90 443.10 L 859.30 430.40 L 854.00 424.40 L 848.40 418.70 L 842.50 413.40 L 836.30 408.70 L 829.80 404.50 L 824.70 401.70 L 819.40 399.40 L 814.00 397.50 L 808.40 396.00 L 802.80 395.00 L 796.90 394.60 L 790.80 394.70 L 784.40 395.50 L 778.20 396.70 L 771.70 398.70 L 764.90 401.40 L 753.10 407.30 L 746.20 409.80 L 741.00 410.30 L 738.90 410.00 L 737.20 409.20 L 735.90 408.10 L 734.90 406.70 L 733.50 402.90 L 733.30 400.30 L 733.80 392.90 L 736.40 381.30 L 738.80 373.70 L 741.70 366.00 L 748.10 350.50 L 757.50 330.70 L 763.70 318.60 L 781.90 318.80 L 790.80 319.30 L 813.30 321.70 L 826.40 323.70 L 844.30 327.50 L 853.80 329.90 L 863.20 332.70 L 872.60 336.00 L 882.20 339.70 L 891.50 343.90 L 900.70 348.60 L 909.70 353.90 L 916.20 358.20 L 922.50 362.90 L 928.60 367.90 L 934.40 373.30 L 939.90 378.90 L 945.10 385.10 L 950.00 391.60 L 954.50 398.60 L 958.60 405.80 L 962.20 413.60 L 965.40 421.90 L 968.10 430.80 L 967.50 432.20 L 964.70 437.20 L 958.10 446.40 L 946.30 460.60 L 927.70 480.40 L 900.70 506.50 Z M 766.10 326.80 L 759.00 338.90 L 752.30 351.10 L 745.60 365.10 L 742.50 372.20 L 738.80 383.30 L 737.50 390.50 L 737.80 395.20 L 739.20 398.30 L 740.30 399.30 L 741.80 400.00 L 743.90 400.30 L 746.60 400.20 L 750.10 399.40 L 754.80 397.60 L 768.20 391.10 L 774.80 388.40 L 781.10 386.50 L 787.10 385.30 L 793.30 384.50 L 799.30 384.30 L 805.10 384.70 L 810.70 385.50 L 816.20 386.90 L 821.60 388.60 L 826.80 390.80 L 831.90 393.30 L 838.30 397.30 L 844.60 401.70 L 850.50 406.60 L 856.20 411.90 L 861.50 417.50 L 871.40 429.50 L 879.90 441.60 L 885.70 450.80 L 890.50 459.30 L 898.20 474.50 L 904.40 489.00 L 928.60 465.30 L 944.10 448.90 L 952.70 438.40 L 955.30 434.70 L 957.30 430.80 L 957.30 429.50 L 954.80 422.50 L 952.00 415.90 L 948.90 409.60 L 945.50 403.70 L 941.80 398.10 L 936.70 391.40 L 931.20 385.20 L 925.50 379.30 L 919.40 373.90 L 913.00 368.90 L 906.40 364.20 L 899.60 359.90 L 892.50 355.90 L 882.90 351.10 L 873.30 346.90 L 863.50 343.20 L 844.00 337.20 L 834.60 334.90 L 820.60 332.00 L 808.10 330.00 L 796.10 328.50 L 777.40 327.10 L 766.10 326.80 Z" fill="#7e282c" fill-rule="nonzero" node-id="470" stroke="none" target-height="187.9" target-width="234.79999" target-x="733.3" target-y="318.6"></path><g node-id="528"><path d="M 882.90 213.10 L 884.40 213.60 L 886.70 215.30 L 887.80 218.00 L 887.80 219.60 L 854.70 471.70 L 853.50 474.50 L 851.20 476.30 L 849.80 476.70 L 848.20 476.70 L 845.50 475.50 L 843.70 473.20 L 843.30 470.20 L 876.40 218.10 L 876.80 216.60 L 878.60 214.30 L 881.30 213.20 L 882.90 213.10 Z" fill="url(#paint12_linear_469_1856)" fill-rule="nonzero" group-id="5" node-id="474" stroke="none" target-height="263.6" target-width="44.5" target-x="843.3" target-y="213.1"></path></g><g node-id="529"><path d="M 904.50 213.30 L 903.40 215.70 L 900.30 219.90 L 896.20 223.20 L 893.90 224.40 L 891.40 225.30 L 886.20 226.10 L 881.00 225.60 L 878.50 224.80 L 876.10 223.60 L 871.90 220.50 L 868.60 216.50 L 867.40 214.10 L 865.90 209.10 L 865.80 203.80 L 866.30 201.30 L 867.10 198.70 L 869.60 194.10 L 873.20 190.40 L 877.70 187.60 L 880.20 186.70 L 885.40 185.90 L 890.50 186.50 L 893.10 187.30 L 895.50 188.40 L 899.70 191.50 L 903.00 195.60 L 904.20 197.90 L 905.10 200.50 L 905.90 205.60 L 905.30 210.80 L 904.50 213.30 Z" fill="url(#paint13_linear_469_1856)" fill-rule="nonzero" group-id="6" node-id="479" stroke="none" target-height="40.200012" target-width="40.100037" target-x="865.8" target-y="185.9"></path></g><g node-id="530"><g node-id="533"><path d="M 907.90 459.60 L 884.90 459.60 L 882.30 459.80 L 879.90 460.50 L 877.70 461.60 L 875.70 463.00 L 874.00 464.70 L 872.50 466.70 L 871.50 468.90 L 870.80 471.30 L 870.60 474.00 L 870.60 542.90 L 870.80 545.50 L 871.50 547.90 L 872.50 550.10 L 874.00 552.20 L 875.70 553.90 L 877.70 555.30 L 879.90 556.40 L 882.30 557.00 L 884.90 557.20 L 907.90 557.20 L 910.50 557.00 L 912.90 556.40 L 915.20 555.30 L 917.20 553.90 L 918.90 552.20 L 920.30 550.10 L 921.40 547.90 L 922.00 545.50 L 922.30 542.90 L 922.30 474.00 L 922.00 471.30 L 921.40 468.90 L 920.30 466.70 L 918.90 464.70 L 917.20 463.00 L 915.20 461.60 L 912.90 460.50 L 910.50 459.80 L 907.90 459.60 Z" fill="url(#paint14_linear_469_1856)" fill-rule="nonzero" filter="url(#filter3_i_469_1856)" group-id="7,10" node-id="486" stroke="none" target-height="97.600006" target-width="51.700012" target-x="870.6" target-y="459.6"></path></g></g><g node-id="531"><g node-id="534"><path d="M 867.70 430.90 L 844.70 430.90 L 842.10 431.20 L 839.70 431.80 L 837.50 432.90 L 835.50 434.30 L 833.80 436.00 L 832.30 438.00 L 831.30 440.30 L 830.60 442.70 L 830.40 445.30 L 830.40 571.70 L 830.60 574.30 L 831.30 576.70 L 832.30 578.90 L 833.80 580.90 L 835.50 582.60 L 837.50 584.10 L 839.70 585.10 L 842.10 585.80 L 844.70 586.00 L 867.70 586.00 L 870.30 585.80 L 872.70 585.10 L 875.00 584.10 L 877.00 582.60 L 878.70 580.90 L 880.10 578.90 L 881.20 576.70 L 881.80 574.30 L 882.10 571.70 L 882.10 445.30 L 881.80 442.70 L 881.20 440.30 L 880.10 438.00 L 878.70 436.00 L 877.00 434.30 L 875.00 432.90 L 872.70 431.80 L 870.30 431.20 L 867.70 430.90 Z" fill="url(#paint15_linear_469_1856)" fill-rule="nonzero" filter="url(#filter4_i_469_1856)" group-id="8,11" node-id="494" stroke="none" target-height="155.1" target-width="51.69995" target-x="830.4" target-y="430.9"></path></g></g><path d="M 882.10 474.00 L 922.30 474.00 L 922.30 499.80 L 882.10 499.80 Z" fill="url(#paint16_linear_469_1856)" fill-opacity="0.2" fill-rule="nonzero" node-id="498" stroke="none" target-height="25.799988" target-width="40.200012" target-x="882.1" target-y="474"></path><path d="M 830.40 451.00 L 882.10 451.00 L 882.10 476.80 L 830.40 476.80 Z" fill="url(#paint17_linear_469_1856)" fill-opacity="0.3" fill-rule="nonzero" node-id="500" stroke="none" target-height="25.799988" target-width="51.69995" target-x="830.4" target-y="451"></path><path d="M 830.40 488.30 L 882.10 488.30 L 882.10 496.90 L 830.40 496.90 Z" fill="#ffffff" fill-opacity="0.15" fill-rule="nonzero" node-id="502" stroke="none" target-height="8.600006" target-width="51.69995" target-x="830.4" target-y="488.3"></path><path d="M 830.40 502.70 L 882.10 502.70 L 882.10 505.60 L 830.40 505.60 Z" fill="#ffffff" fill-opacity="0.15" fill-rule="nonzero" node-id="504" stroke="none" target-height="2.899994" target-width="51.69995" target-x="830.4" target-y="502.7"></path><path d="M 761.00 315.50 L 742.80 322.70 L 725.10 329.40 L 707.80 335.40 L 690.80 340.90 L 674.10 345.80 L 657.00 350.50 L 640.30 354.60 L 608.00 361.40 L 592.40 364.10 L 572.50 367.00 L 553.20 369.40 L 534.60 371.10 L 516.50 372.20 L 498.10 372.90 L 480.50 373.10 L 463.40 372.80 L 447.00 372.10 L 430.40 371.00 L 399.30 367.80 L 384.70 365.80 L 365.20 362.50 L 347.00 358.90 L 330.10 355.10 L 313.30 350.70 L 298.00 346.30 L 284.00 341.90 L 257.80 332.70 L 231.50 321.80 L 219.70 316.30 L 209.30 311.10 L 197.10 304.30 L 190.10 308.60 L 183.30 313.60 L 176.70 319.00 L 170.50 324.90 L 164.60 331.10 L 153.60 344.20 L 144.00 357.50 L 137.50 367.60 L 132.00 376.90 L 123.20 393.40 L 116.00 409.20 L 133.30 417.80 L 150.50 425.80 L 167.60 433.30 L 184.80 440.10 L 201.80 446.40 L 219.20 452.30 L 236.50 457.70 L 253.70 462.70 L 270.80 467.10 L 287.80 471.00 L 309.30 475.50 L 330.50 479.20 L 351.50 482.40 L 372.30 484.90 L 393.30 486.80 L 413.90 488.30 L 434.20 489.20 L 454.10 489.60 L 474.20 489.60 L 493.80 489.20 L 513.00 488.40 L 531.70 487.20 L 556.70 485.00 L 580.60 482.40 L 603.60 479.30 L 626.40 475.60 L 648.00 471.80 L 668.30 467.70 L 688.60 463.20 L 724.60 454.20 L 749.70 447.10 L 770.80 440.60 L 790.50 434.10 L 819.10 423.60 L 835.20 417.00 L 832.60 406.20 L 828.50 395.30 L 825.10 388.30 L 821.20 381.40 L 812.20 368.00 L 802.50 355.60 L 794.90 347.00 L 787.60 339.40 L 774.20 326.70 L 761.00 315.50 Z" fill="#fa5634" fill-rule="nonzero" node-id="506" stroke="none" target-height="185.30002" target-width="719.2" target-x="116" target-y="304.3"></path><path d="M 116.00 406.80 L 123.30 390.50 L 132.10 373.40 L 137.70 363.90 L 144.20 353.50 L 153.90 339.80 L 165.00 326.30 L 170.90 319.90 L 177.20 313.90 L 183.80 308.20 L 190.70 303.20 L 197.80 298.70 L 210.10 305.70 L 220.60 311.00 L 232.50 316.70 L 259.00 327.90 L 285.40 337.50 L 299.50 342.00 L 314.90 346.50 L 331.90 351.00 L 348.90 355.00 L 367.20 358.70 L 386.90 362.00 L 401.50 364.10 L 432.90 367.40 L 449.70 368.60 L 466.20 369.30 L 483.40 369.60 L 501.20 369.40 L 519.70 368.70 L 537.90 367.50 L 556.70 365.70 L 576.10 363.30 L 596.20 360.30 L 611.90 357.50 L 644.40 350.50 L 661.30 346.30 L 678.50 341.50 L 695.30 336.40 L 712.40 330.80 L 729.90 324.50 L 747.70 317.70 L 766.00 310.20 L 779.40 321.80 L 792.80 334.80 L 800.20 342.70 L 807.90 351.60 L 817.70 364.30 L 826.70 378.10 L 830.60 385.20 L 834.00 392.50 L 838.20 403.70 L 840.80 414.80 L 824.60 421.60 L 795.70 432.40 L 775.90 439.10 L 754.60 445.90 L 729.30 453.10 L 693.10 462.40 L 672.60 467.00 L 652.20 471.30 L 630.40 475.20 L 607.30 479.00 L 572.30 483.60 L 534.90 487.10 L 516.00 488.40 L 496.70 489.20 L 477.00 489.60 L 456.70 489.70 L 436.60 489.20 L 416.20 488.30 L 395.40 486.80 L 374.30 484.70 L 353.30 482.20 L 332.20 478.90 L 310.70 475.00 L 289.10 470.50 L 271.90 466.40 L 254.70 461.90 L 237.40 456.80 L 220.00 451.20 L 202.50 445.10 L 185.30 438.60 L 168.10 431.60 L 150.80 423.90 L 133.40 415.60 L 116.00 406.80 Z M 763.20 321.70 L 744.90 328.80 L 727.00 335.30 L 709.50 341.20 L 692.40 346.60 L 675.60 351.40 L 654.10 356.90 L 633.30 361.80 L 613.00 365.80 L 593.40 369.20 L 573.30 372.00 L 554.00 374.30 L 535.20 376.00 L 517.10 377.10 L 498.70 377.70 L 480.90 377.90 L 463.80 377.60 L 447.40 376.90 L 430.70 375.80 L 399.50 372.60 L 384.90 370.60 L 365.40 367.40 L 347.20 363.90 L 330.40 360.10 L 313.60 355.80 L 298.20 351.50 L 284.30 347.20 L 258.10 338.10 L 231.90 327.40 L 220.20 322.00 L 209.80 316.90 L 197.70 310.20 L 191.80 314.00 L 186.20 318.30 L 180.70 323.20 L 170.60 333.80 L 165.90 339.50 L 159.30 348.40 L 153.30 357.30 L 143.30 374.50 L 135.90 389.30 L 129.80 403.40 L 146.10 411.60 L 162.30 419.30 L 178.60 426.40 L 194.80 433.00 L 211.10 439.00 L 227.60 444.70 L 244.10 449.80 L 260.50 454.50 L 276.90 458.80 L 293.20 462.50 L 313.80 466.80 L 334.20 470.30 L 354.50 473.30 L 374.60 475.70 L 394.80 477.60 L 414.80 479.00 L 434.40 479.80 L 453.80 480.20 L 473.30 480.20 L 511.00 479.00 L 529.30 477.80 L 553.70 475.70 L 577.10 473.20 L 599.60 470.20 L 622.00 466.70 L 643.20 463.00 L 663.20 459.00 L 701.60 450.40 L 718.60 446.10 L 743.40 439.30 L 764.40 433.00 L 798.90 421.50 L 812.30 416.70 L 828.30 410.30 L 826.80 403.80 L 824.80 397.30 L 822.20 390.90 L 815.80 378.60 L 812.00 372.60 L 805.80 364.10 L 799.40 356.10 L 786.40 342.10 L 774.70 331.20 L 763.20 321.70 Z" fill="#7e282c" fill-rule="nonzero" node-id="508" stroke="none" target-height="191" target-width="724.8" target-x="116" target-y="298.7"></path><path d="M 393.50 524.80 L 394.20 529.70 L 394.50 534.40 L 394.30 539.00 L 393.70 543.60 L 392.60 548.10 L 391.20 552.40 L 389.40 556.60 L 387.10 560.60 L 384.60 564.40 L 381.70 567.90 L 378.40 571.10 L 374.90 574.10 L 371.00 576.70 L 366.90 579.00 L 362.50 580.80 L 357.80 582.40 L 352.80 583.40 L 347.90 583.90 L 343.10 584.00 L 338.30 583.50 L 333.60 582.60 L 329.00 581.30 L 324.60 579.50 L 320.40 577.30 L 316.40 574.80 L 312.70 571.90 L 309.30 568.60 L 306.20 564.90 L 303.40 561.00 L 301.10 556.80 L 299.10 552.20 L 297.50 547.40 L 296.40 542.20 L 295.80 537.40 L 295.60 532.80 L 295.90 528.40 L 296.70 523.90 L 297.80 519.80 L 299.30 515.90 L 301.20 512.20 L 305.70 506.00 L 308.40 503.10 L 314.80 498.10 L 318.40 496.00 L 326.70 492.50 L 330.90 496.40 L 335.40 499.90 L 340.30 503.20 L 350.80 508.80 L 369.00 516.20 L 393.50 524.80 Z" fill="#ffffff" fill-rule="nonzero" node-id="510" stroke="#ba6f44" stroke-linecap="butt" stroke-width="11.2376" target-height="91.5" target-width="98.899994" target-x="295.6" target-y="492.5"></path><path d="M 426.80 517.20 L 421.90 519.00 L 416.30 520.40 L 409.80 521.40 L 399.80 521.80 L 388.20 520.70 L 382.40 519.70 L 369.70 516.10 L 362.80 513.50 L 356.20 510.70 L 349.30 507.20 L 342.10 503.00 L 334.60 498.20 L 327.50 493.10 L 320.20 487.30 L 312.60 480.60 L 304.60 473.10" fill="none" node-id="512" stroke="#7e282c" stroke-linecap="round" stroke-width="16.8565" target-height="48.69998" target-width="122.19998" target-x="304.6" target-y="473.1"></path><path d="M 368.80 557.00 L 368.60 560.10 L 367.90 563.00 L 366.80 565.80 L 363.60 570.80 L 361.40 572.90 L 356.30 576.40 L 353.40 577.70 L 347.00 579.30 L 343.50 579.50 L 340.00 579.30 L 336.80 578.70 L 333.70 577.70 L 328.10 574.80 L 323.50 570.80 L 321.70 568.40 L 320.20 565.80 L 319.10 563.00 L 318.50 560.10 L 318.20 557.00 L 318.50 554.00 L 319.10 551.10 L 320.20 548.30 L 323.50 543.30 L 328.10 539.30 L 333.70 536.30 L 340.00 534.80 L 343.50 534.60 L 347.00 534.80 L 353.40 536.30 L 356.30 537.60 L 361.40 541.10 L 363.60 543.30 L 366.80 548.30 L 367.90 551.10 L 368.60 554.00 L 368.80 557.00 Z" fill="#441f1f" fill-rule="nonzero" node-id="514" stroke="none" target-height="44.900024" target-width="50.599976" target-x="318.2" target-y="534.6"></path><path d="M 557.70 524.80 L 556.90 529.70 L 556.70 534.40 L 556.80 539.00 L 557.50 543.60 L 558.50 548.10 L 560.00 552.40 L 561.80 556.60 L 564.00 560.60 L 566.60 564.40 L 569.50 567.90 L 572.70 571.10 L 576.30 574.10 L 580.10 576.70 L 584.20 579.00 L 588.60 580.80 L 593.30 582.40 L 598.30 583.40 L 603.30 583.90 L 608.10 584.00 L 612.90 583.50 L 617.60 582.60 L 622.10 581.30 L 626.50 579.50 L 630.70 577.30 L 634.70 574.80 L 638.40 571.90 L 641.80 568.60 L 645.00 564.90 L 647.70 561.00 L 650.10 556.80 L 652.10 552.20 L 653.60 547.40 L 654.80 542.20 L 655.40 537.40 L 655.50 532.80 L 655.20 528.40 L 654.50 523.90 L 653.30 519.80 L 651.80 515.90 L 649.90 512.20 L 645.50 506.00 L 642.80 503.10 L 636.40 498.10 L 632.80 496.00 L 624.50 492.50 L 620.30 496.40 L 615.70 499.90 L 610.80 503.20 L 600.40 508.80 L 582.20 516.20 L 557.70 524.80 Z" fill="#ffffff" fill-rule="nonzero" node-id="516" stroke="#ba6f44" stroke-linecap="butt" stroke-width="11.2376" target-height="91.5" target-width="98.79999" target-x="556.7" target-y="492.5"></path><path d="M 524.40 517.20 L 529.20 519.00 L 534.90 520.40 L 541.30 521.40 L 551.30 521.80 L 563.00 520.70 L 568.80 519.70 L 581.50 516.10 L 588.40 513.50 L 594.90 510.70 L 601.80 507.20 L 609.00 503.00 L 616.50 498.20 L 623.60 493.10 L 631.00 487.30 L 638.60 480.60 L 646.50 473.10" fill="none" node-id="518" stroke="#7e282c" stroke-linecap="round" stroke-width="16.8565" target-height="48.69998" target-width="122.099976" target-x="524.4" target-y="473.1"></path><g node-id="532"><path d="M 582.30 557.00 L 582.60 560.10 L 583.30 563.00 L 584.30 565.80 L 585.80 568.40 L 587.60 570.80 L 589.80 572.90 L 594.80 576.40 L 597.80 577.70 L 604.20 579.30 L 607.60 579.50 L 611.10 579.30 L 614.40 578.70 L 617.50 577.70 L 623.10 574.80 L 627.70 570.80 L 629.50 568.40 L 630.90 565.80 L 632.00 563.00 L 632.70 560.10 L 632.90 557.00 L 632.70 554.00 L 632.00 551.10 L 630.90 548.30 L 627.70 543.30 L 623.10 539.30 L 617.50 536.30 L 611.10 534.80 L 607.60 534.60 L 604.20 534.80 L 597.80 536.30 L 594.80 537.60 L 589.80 541.10 L 587.60 543.30 L 584.30 548.30 L 583.30 551.10 L 582.60 554.00 L 582.30 557.00 Z" fill="#441f1f" fill-rule="nonzero" group-id="9" node-id="522" stroke="none" target-height="44.900024" target-width="50.600037" target-x="582.3" target-y="534.6"></path></g></svg>