<?xml version="1.0" standalone="no"?><!DOCTYPE svg PUBLIC "-//W3C//DTD SVG 1.1//EN" "http://www.w3.org/Graphics/SVG/1.1/DTD/svg11.dtd"><svg t="1741058190024" class="icon" viewBox="0 0 1024 1024" version="1.1" xmlns="http://www.w3.org/2000/svg" p-id="3677" xmlns:xlink="http://www.w3.org/1999/xlink" width="26" height="26"><path d="M888 862.91H138a70.08 70.08 0 0 1-70-70V286a70.08 70.08 0 0 1 70-70h750a70.08 70.08 0 0 1 70 70v507a70.08 70.08 0 0 1-70 69.91zM138 276a10 10 0 0 0-10 10v507a10 10 0 0 0 10 10h750a10 10 0 0 0 10-10V286a10 10 0 0 0-10-10z" fill="#4c4948" p-id="3678"></path><path d="M180.78 338.83h548.61v60H180.78zM180.78 509.43h548.61v60H180.78zM178.85 678.12h387.47v60H178.85z" fill="#4c4948" p-id="3679"></path><path d="M764.65 678.12m1.17 0l61.83 0q1.17 0 1.17 1.17l0 61.83q0 1.17-1.17 1.17l-61.83 0q-1.17 0-1.17-1.17l0-61.83q0-1.17 1.17-1.17Z" fill="#4c4948" p-id="3680"></path></svg>