<?xml version="1.0" standalone="no"?><!DOCTYPE svg PUBLIC "-//W3C//DTD SVG 1.1//EN" "http://www.w3.org/Graphics/SVG/1.1/DTD/svg11.dtd"><svg t="1742481645924" class="icon" viewBox="0 0 1024 1024" version="1.1" xmlns="http://www.w3.org/2000/svg" p-id="8283" xmlns:xlink="http://www.w3.org/1999/xlink" width="16" height="16"><path d="M872.30464 499.22048l0 417.18784L75.84768 916.40832 75.84768 157.89056l606.8224 0L682.67008 82.04288 37.92896 82.04288C16.95744 82.04288 0 99.0208 0 119.9616l0 834.36544C0 975.29856 16.95744 992.256 37.92896 992.256l872.2944 0c20.97152 0 37.92896-16.95744 37.92896-37.92896L948.15232 499.22048 872.30464 499.22048 872.30464 499.22048z" fill="#ffffff" p-id="8284"></path><path d="M1024 69.00736c0-13.74208-11.15136-24.89344-24.89344-24.89344-6.52288 0-12.17536 2.82624-16.66048 6.94272L493.4144 600.17664 303.4112 411.41248 171.40736 540.70272l53.77024 0 267.48928 249.71264L1020.5184 81.07008C1022.58688 77.44512 1024 73.44128 1024 69.00736L1024 69.00736z" fill="#ffffff" p-id="8285"></path></svg>