<?xml version="1.0" standalone="no"?><!DOCTYPE svg PUBLIC "-//W3C//DTD SVG 1.1//EN" "http://www.w3.org/Graphics/SVG/1.1/DTD/svg11.dtd"><svg t="1742362300491" class="icon" viewBox="0 0 1024 1024" version="1.1" xmlns="http://www.w3.org/2000/svg" p-id="1016" xmlns:xlink="http://www.w3.org/1999/xlink" width="26" height="26"><path d="M469.333333 853.333333a334.506667 334.506667 0 0 1-47.573333-3.413333A322.133333 322.133333 0 0 1 150.613333 569.386667 320 320 0 0 1 448 213.333333v311.04a42.666667 42.666667 0 0 0 10.453333 30.293334l209.28 228.48A315.733333 315.733333 0 0 1 469.333333 853.333333z" fill="#D9ECFF" p-id="1017"></path><path d="M426.666667 237.653333v287.36a64 64 0 0 0 16.64 42.666667l193.493333 212.053333A294.186667 294.186667 0 0 1 469.333333 832a311.68 311.68 0 0 1-44.586666-3.2A300.586667 300.586667 0 0 1 170.666667 567.04a298.666667 298.666667 0 0 1 256-329.386667M448 192h-1.28a341.333333 341.333333 0 0 0-28.586667 678.186667A353.066667 353.066667 0 0 0 469.333333 874.666667a338.986667 338.986667 0 0 0 213.333334-74.453334A21.333333 21.333333 0 0 0 682.666667 768l-208.64-228.48a21.333333 21.333333 0 0 1-5.546667-14.293333V213.333333a21.333333 21.333333 0 0 0-21.333333-21.333333z" fill="#409EFF" p-id="1018"></path><path d="M533.333333 469.333333V170.666667a320 320 0 0 1 298.666667 298.666666z" fill="#FFFFFF" p-id="1019"></path><path d="M554.666667 194.986667A298.666667 298.666667 0 0 1 808.106667 448H554.666667V194.986667M533.333333 149.333333a21.333333 21.333333 0 0 0-21.333333 21.333334v298.666666a21.333333 21.333333 0 0 0 21.333333 21.333334h298.666667a21.333333 21.333333 0 0 0 21.333333-23.253334A341.333333 341.333333 0 0 0 535.466667 149.333333z" fill="#409EFF" p-id="1020"></path><path d="M851.84 533.333333h-270.933333a21.333333 21.333333 0 0 0-15.786667 35.626667L746.666667 768a21.333333 21.333333 0 0 0 31.573333 0 339.626667 339.626667 0 0 0 94.08-212.266667 21.333333 21.333333 0 0 0-20.48-22.4z" fill="#E6A23C" p-id="1021"></path></svg>