<?xml version="1.0" standalone="no"?><!DOCTYPE svg PUBLIC "-//W3C//DTD SVG 1.1//EN" "http://www.w3.org/Graphics/SVG/1.1/DTD/svg11.dtd"><svg t="1742277320101" class="icon" viewBox="0 0 1024 1024" version="1.1" xmlns="http://www.w3.org/2000/svg" p-id="7957" xmlns:xlink="http://www.w3.org/1999/xlink" width="26" height="26"><path d="M511.94966 0c282.742114 0 511.943473 229.201359 511.943472 511.943473S794.691773 1023.886946 511.94966 1023.886946 0.006187 794.685587 0.006187 511.943473 229.207546 0 511.94966 0z" fill="#FFB400" p-id="7958"></path><path d="M511.94966 511.943473m-490.612495 0a490.612495 490.612495 0 1 0 981.224989 0 490.612495 490.612495 0 1 0-981.224989 0Z" fill="#FFD217" p-id="7959"></path><path d="M42.668143 479.947006a469.281517 458.616028 0 1 0 938.563033 0 469.281517 458.616028 0 1 0-938.563033 0Z" fill="#FFE20D" p-id="7960"></path><path d="M362.632813 106.65489c0 15.251649 28.455525 29.330095 74.658423 36.945254s103.113948 7.615159 149.316847 0C632.810981 135.984985 661.266506 121.906539 661.266506 106.65489c0-15.251649-28.455525-29.330095-74.658423-36.945254s-103.113948-7.615159-149.316847 0C391.088338 77.324795 362.632813 91.403241 362.632813 106.65489z" fill="#FFF1B7" p-id="7961"></path><path d="M4.741664 865.397779c18.173993-68.643087 83.3188-110.622452 145.47727-93.749648 62.201132 16.851473 97.866527 86.15582 79.692534 154.777576-18.173993 68.621756-83.3188 110.601121-145.47727 93.728318-62.201132-16.851473-97.866527-86.15582-79.692534-154.777577z" fill="#FFB400" p-id="7962"></path><path d="M144.928851 791.187306c-50.874383-13.779812-105.183053 21.202992-120.584018 79.37257-15.443628 58.254901 14.39841 116.232499 65.379447 130.054973 50.874383 13.779812 105.183053-21.202992 120.584019-79.37257 15.443628-58.254901-14.39841-116.232499-65.379448-130.054973z" fill="#FFD217" p-id="7963"></path><path d="M210.32963 870.559876c-15.422297-58.169577-69.730967-93.152381-120.60535-79.351239a86.603771 86.603771 0 0 0-24.679941 11.049447 104.884419 104.884419 0 0 0-18.920578 38.758387c-13.225206 51.47165 12.713263 103.455243 57.934937 116.083183 45.221673 12.64927 92.576445-18.835254 105.801651-70.306904 0.831908-3.178316 1.493168-6.356631 2.005112-9.513616l-0.362627-1.855795-1.194535-4.863463z" fill="#FFE20D" p-id="7964"></path><path d="M873.659054 771.648131c62.179801-16.851473 127.324608 25.106561 145.47727 93.728317 18.195324 68.621756-17.491402 137.926104-79.649872 154.777577-62.179801 16.851473-127.324608-25.106561-145.47727-93.728318-18.195324-68.621756 17.491402-137.926104 79.649872-154.777576z" fill="#FFB400" p-id="7965"></path><path d="M998.5306 870.837178c-15.251649-57.614972-69.005714-92.235149-119.28283-78.604654-50.38377 13.651826-79.905844 71.032157-64.632863 128.732453 15.251649 57.614972 69.005714 92.235149 119.282829 78.604654 50.38377-13.651826 79.905844-71.032157 64.632864-128.732453z" fill="#FFD217" p-id="7966"></path><path d="M879.24777 792.232524c32.48708-8.809694 66.424666 2.517055 90.486009 27.196997 3.348964 6.697927 6.079329 13.929129 8.041779 21.58695 13.225206 51.47165-12.713263 103.455243-57.934936 116.083183-45.221673 12.64927-92.576445-18.835254-105.801651-70.306904a110.195833 110.195833 0 0 1-2.410401-12.201319c5.396737-39.440978 31.015242-72.440001 67.6192-82.358907z" fill="#FFE20D" p-id="7967"></path><path d="M725.25944 682.591297c0 23.570731 38.182451 42.661956 85.323912 42.661956s85.323912-19.091225 85.323912-42.661956-38.182451-42.661956-85.323912-42.661956-85.323912 19.091225-85.323912 42.661956zM127.992055 682.591297c0 23.570731 38.182451 42.661956 85.323912 42.661956s85.323912-19.091225 85.323912-42.661956-38.182451-42.661956-85.323912-42.661956-85.323912 19.091225-85.323912 42.661956z" fill="#FF9191" fill-opacity=".299" p-id="7968"></path><path d="M456.083828 491.871023l-312.050878-83.617434c-7.551166-2.026443-15.48629 2.986337-17.68338 11.198763l-0.319965 1.365183-0.21331 1.791802c-6.399293 90.528671 47.034807 171.991676 129.052417 193.962583 78.967281 21.16033 162.691369-18.643275 204.13746-94.496233l2.709034-5.119434 2.474394-4.991449c3.434287-7.167209 0.917232-15.742262-5.610047-19.133887l-1.215866-0.554606-1.279859-0.426619z" fill="#FFFFFF" p-id="7969"></path><path d="M369.224086 468.726911c1.493168 10.089553 1.002556 20.648387-1.791803 31.100566-11.092109 41.424759-54.202015 65.848729-96.288034 54.585973-42.064689-11.284087-67.192581-53.988705-56.100473-95.413465 2.815689-10.452179 7.679152-19.83781 14.014453-27.836926l140.144526 37.563852z" fill="#443C25" p-id="7970"></path><path d="M256.895155 523.334215a21.757598 21.757598 0 0 0 26.749047-15.144994 21.757598 21.757598 0 0 0-15.571614-26.514406 21.757598 21.757598 0 0 0-26.749047 15.144994 21.757598 21.757598 0 0 0 15.571614 26.514406z" fill="#FFFFFF" p-id="7971"></path><path d="M567.815491 491.871023l312.050878-83.617434c7.551166-2.026443 15.48629 2.986337 17.683381 11.198763l0.319964 1.365183 0.21331 1.791802c6.399293 90.528671-47.034807 171.991676-129.052417 193.962583-78.967281 21.16033-162.691369-18.643275-204.13746-94.496233l-2.709034-5.119434-2.474394-4.991449c-3.434287-7.167209-0.917232-15.742262 5.610048-19.133887l1.215865-0.554606 1.279859-0.426619z" fill="#FFFFFF" p-id="7972"></path><path d="M654.675234 468.726911a76.364901 76.364901 0 0 0 1.791802 31.100566c11.092109 41.424759 54.202015 65.848729 96.288035 54.585973 42.064689-11.284087 67.192581-53.988705 56.100472-95.413465a76.364901 76.364901 0 0 0-14.014453-27.836926l-140.144525 37.563852z" fill="#443C25" p-id="7973"></path><path d="M767.004164 523.334215a21.757598 21.757598 0 0 1-26.749046-15.144994 21.757598 21.757598 0 0 1 15.571613-26.514406 21.757598 21.757598 0 0 1 26.749047 15.144994 21.757598 21.757598 0 0 1-15.571614 26.514406z" fill="#FFFFFF" p-id="7974"></path><path d="M426.625747 767.915209a106.65489 63.992934 90 1 0 127.985869 0 106.65489 63.992934 90 1 0-127.985869 0Z" fill="#894F04" p-id="7975"></path><path d="M894.094131 106.228271c0 9.470954-4.842132 18.813923-14.569058 28.028905 5.482061 5.67404 10.857468 11.476066 16.083558 17.384747 40.464865-30.076679 65.763405-33.404312 75.91695-10.02556l2.453063 5.823357 3.860907 9.726926 3.946231 10.68682 2.62371 7.572497 2.559717 7.8498 3.626267 12.137327 2.197091 8.233757 1.066548 4.13821 1.898457 8.27642 0.85324 4.116878 1.514499 8.169765c6.121991 36.454641 2.62371 68.195137-26.59973 68.195137-50.341108 0-109.534572-8.532391-153.32707-49.487869C726.645954 266.359923 622.444126 277.302714 511.94966 277.302714c-164.312524 0-314.631926-24.167998-430.288489-64.163581A514.609845 514.609845 0 0 1 159.561902 119.240167C261.566639 143.984102 382.40663 158.33985 511.94966 158.33985c73.805184 0 144.773348-4.650153 211.070027-13.225206v0.981225c-1.045218-68.643087 12.64927-109.086622 41.062133-121.330603 42.619294-18.387303 130.012311 39.03569 130.012311 81.484336z" fill="#CF411C" p-id="7976"></path></svg>