<?xml version="1.0" standalone="no"?><!DOCTYPE svg PUBLIC "-//W3C//DTD SVG 1.1//EN" "http://www.w3.org/Graphics/SVG/1.1/DTD/svg11.dtd"><svg t="1742362367872" class="icon" viewBox="0 0 1024 1024" version="1.1" xmlns="http://www.w3.org/2000/svg" p-id="1351" xmlns:xlink="http://www.w3.org/1999/xlink" width="26" height="26"><path d="M746.666667 384c0 129.706667-192 384-234.666667 384S277.333333 513.706667 277.333333 384a234.666667 234.666667 0 0 1 469.333334 0z" fill="#D9ECFF" p-id="1352"></path><path d="M512 789.333333c-60.373333 0-256-267.946667-256-405.333333a256 256 0 0 1 512 0c0 137.386667-195.626667 405.333333-256 405.333333z m0-618.666666a213.333333 213.333333 0 0 0-213.333333 213.333333c0 114.346667 170.666667 345.386667 213.333333 362.666667 42.666667-16.853333 213.333333-247.893333 213.333333-362.666667A213.333333 213.333333 0 0 0 512 170.666667z" fill="#409EFF" p-id="1353"></path><path d="M512 375.466667m-93.866667 0a93.866667 93.866667 0 1 0 187.733334 0 93.866667 93.866667 0 1 0-187.733334 0Z" fill="#FFFFFF" p-id="1354"></path><path d="M512 490.666667a115.2 115.2 0 1 1 115.2-115.2A115.413333 115.413333 0 0 1 512 490.666667z m0-187.733334a72.533333 72.533333 0 1 0 72.533333 72.533334 72.533333 72.533333 0 0 0-72.533333-72.533334z" fill="#409EFF" p-id="1355"></path><path d="M234.666667 853.333333m21.333333 0l512 0q21.333333 0 21.333333 21.333334l0 0q0 21.333333-21.333333 21.333333l-512 0q-21.333333 0-21.333333-21.333333l0 0q0-21.333333 21.333333-21.333334Z" fill="#E6A23C" p-id="1356"></path><path d="M234.666667 789.333333m21.333333 0l0 0q21.333333 0 21.333333 21.333334l0 64q0 21.333333-21.333333 21.333333l0 0q-21.333333 0-21.333333-21.333333l0-64q0-21.333333 21.333333-21.333334Z" fill="#E6A23C" p-id="1357"></path><path d="M746.666667 789.333333m21.333333 0l0 0q21.333333 0 21.333333 21.333334l0 64q0 21.333333-21.333333 21.333333l0 0q-21.333333 0-21.333333-21.333333l0-64q0-21.333333 21.333333-21.333334Z" fill="#E6A23C" p-id="1358"></path></svg>