<?xml version="1.0" standalone="no"?><!DOCTYPE svg PUBLIC "-//W3C//DTD SVG 1.1//EN" "http://www.w3.org/Graphics/SVG/1.1/DTD/svg11.dtd"><svg t="1742624402869" class="icon" viewBox="0 0 1024 1024" version="1.1" xmlns="http://www.w3.org/2000/svg" p-id="6470" xmlns:xlink="http://www.w3.org/1999/xlink" width="26" height="26"><path d="M853.333333 469.333333c23.466667 0 42.666667 19.2 42.666667 42.666667v298.666667c0 70.826667-57.173333 128-128 128H256c-70.826667 0-128-57.173333-128-128V213.333333c0-70.826667 57.173333-128 128-128h256c23.466667 0 42.666667 19.2 42.666667 42.666667s-19.2 42.666667-42.666667 42.666667H256c-23.466667 0-42.666667 19.2-42.666667 42.666666v597.333334c0 23.466667 19.2 42.666667 42.666667 42.666666h512c23.466667 0 42.666667-19.2 42.666667-42.666666v-298.666667c0-23.466667 19.2-42.666667 42.666666-42.666667z" fill="#4c494e" p-id="6471"></path><path d="M500.906667 690.901333l-140.8 20.053334c-28.16 3.84-52.053333-20.053333-48.213334-48.213334l20.053334-140.8c1.28-9.386667 5.546667-17.92 11.946666-24.32l322.133334-321.706666a128 128 0 0 1 180.906666 0 128 128 0 0 1 0 180.906666l-321.706666 321.706667a41.813333 41.813333 0 0 1-24.32 12.373333z m-86.272-142.762666l-10.24 70.4 70.4-10.24 221.44-221.44-60.586667-60.16-221.013333 221.44z m341.589333-221.610667l30.293333-29.866667c16.64-16.64 16.64-43.946667 0-60.586666a42.496 42.496 0 0 0-60.16 0l-30.293333 30.293333 60.16 60.16z" fill="#4c494e" p-id="6472"></path></svg>