<?xml version="1.0" standalone="no"?><!DOCTYPE svg PUBLIC "-//W3C//DTD SVG 1.1//EN" "http://www.w3.org/Graphics/SVG/1.1/DTD/svg11.dtd"><svg t="1740636929579" class="icon" viewBox="0 0 3553 1024" version="1.1" xmlns="http://www.w3.org/2000/svg" p-id="14842" xmlns:xlink="http://www.w3.org/1999/xlink" width="141.63671875" height="52"><path d="M332.589176 1024C291.568941 1024 271.058824 981.684706 271.058824 960.542118c0-21.232941 20.510118-63.488 41.050352-63.488C1255.905882 494.863059 2281.773176 283.316706 3287.130353 240.941176v21.112471c82.070588 0 184.651294-21.112471 266.752-21.112471v42.37553c-1025.837176 105.803294-2031.224471 317.409882-2995.561412 634.88-61.530353 63.488-143.661176 84.660706-225.731765 105.803294zM41.050353 648.402824C984.847059 251.030588 2010.654118 41.863529 3016.071529 0v20.931765C3118.682353 20.931765 3200.783059 0 3282.823529 0v41.863529C2256.956235 146.462118 1251.538824 355.629176 287.201882 669.334588 205.101176 711.198118 143.600941 732.069647 61.500235 752.941176h-20.48C20.48 752.941176 0 732.069647 0 690.206118l41.050353-41.803294z" fill="#FF5700" p-id="14843"></path></svg>