<?xml version="1.0" standalone="no"?><!DOCTYPE svg PUBLIC "-//W3C//DTD SVG 1.1//EN" "http://www.w3.org/Graphics/SVG/1.1/DTD/svg11.dtd"><svg t="1740563395752" class="icon" viewBox="0 0 1024 1024" version="1.1" xmlns="http://www.w3.org/2000/svg" p-id="2213" xmlns:xlink="http://www.w3.org/1999/xlink" width="80" height="80"><path d="M88.576 339.748571c-11.026286-1.938286-14.134857-16.530286-12.946286-23.332571 1.206857-6.838857 9.124571-19.474286 14.628572-18.486857 276.516571-84.772571 564.278857-104.265143 836.918857-70.253714l-1.206857 6.802285c22.070857 3.894857 50.834286 1.956571 72.905143 5.851429l-2.413715 13.622857c-281.728-14.555429-563.986286 5.942857-841.216 62.445714-20.132571 17.517714-43.410286 20.443429-66.669714 23.369143z m-55.936-136.210285C308.114286 124.726857 595.309714 108.306286 867.84 142.939429l-1.133714 6.528c27.556571 4.845714 50.779429 2.230857 72.832 6.125714l-2.285715 13.019428c-281.472-16.091429-563.2 1.28-839.588571 53.101715-24.374857 9.142857-42.057143 12.708571-65.261714 15.305143l-5.485715-0.969143c-5.540571-0.987429-9.892571-8.429714-7.606857-21.449143l13.330286-11.062857z" fill="#DF897A" p-id="2214"></path></svg>